<?xml version="1.0" encoding="UTF-8"?>
<svg id="Layer_2" data-name="Layer 2" xmlns="http://www.w3.org/2000/svg" viewBox="0 0 1803.01 1249.91">
  <defs>
    <style>
      .cls-1 {
        fill: #ff1c1c;
      }
    </style>
  </defs>
  <g id="Layer_1-2" data-name="Layer 1">
    <g>
      <path class="cls-1" d="M594.68,1090.14l1.97-8.41-19.47-4.56-4.53,19.34c8.35-.38,15.73-2.52,22.03-6.37Z"/>
      <path class="cls-1" d="M353.81,1180.78c.07.08,7.18,8.09,6.44,18.05-.51,6.85-4.69,13.55-12.43,19.92-16.6,13.68-37.7,12.01-51.04,8.9l102.19-121.12-13.25-14.73-65.16,44.09,75.87-94.24,58.37-39.5-3.32,14.16c5.19-1,10.6-1.5,16.23-1.5,1.57,0,3.12.04,4.64.12l6.86-29.29,39.45-26.69,8.38,8.97-16.8,10.43,10.55,16.99,20.18-12.53,8.96,9.59,14.61-13.66-6.25-6.69,41.84-25.98-81.77,101.57,13.39,14.55,60.49-40.93-65.2,77.28,3.44,15.52c1.99.92,49.14,22.26,85.19-7.45,12.22-10.07,18.84-21.58,19.68-34.21,1.21-18.33-10.4-31.35-11.72-32.78l-14.69,13.58c.07.08,7.18,8.09,6.44,18.05-.51,6.85-4.69,13.55-12.43,19.92-16.6,13.68-37.7,12.01-51.04,8.9l102.19-121.12-13.25-14.73-65.16,44.09,75.87-94.24,58.37-39.5-3.32,14.16c5.19-1,10.6-1.5,16.23-1.5,1.57,0,3.12.04,4.64.12l6.86-29.29,39.45-26.69,8.38,8.97-16.8,10.43,10.55,16.99,20.18-12.53,8.96,9.59,14.61-13.66-6.25-6.69,41.84-25.98-81.77,101.57,13.39,14.55,60.49-40.93-65.2,77.28,3.44,15.52c1.99.92,49.14,22.26,85.19-7.45,12.23-10.07,18.85-21.58,19.68-34.21,1.21-18.33-10.4-31.35-11.72-32.78l-14.69,13.58c.07.08,7.18,8.09,6.44,18.05-.51,6.85-4.69,13.55-12.43,19.92-16.6,13.68-37.7,12.01-51.04,8.9l102.19-121.12-13.25-14.73-65.16,44.09,75.87-94.24,58.37-39.5-3.32,14.16c5.19-1,10.6-1.5,16.23-1.5,1.57,0,3.12.04,4.64.12l6.86-29.29,39.45-26.69,8.38,8.97-16.8,10.43,10.55,16.99,20.18-12.53,8.96,9.59,14.61-13.66-6.25-6.69,41.84-25.98-81.77,101.57,13.39,14.55,60.49-40.93-65.2,77.28,3.44,15.52c1.99.92,49.14,22.26,85.19-7.45,12.23-10.07,18.84-21.58,19.68-34.21,1.21-18.33-10.4-31.35-11.72-32.78l-14.69,13.58c.07.08,7.18,8.09,6.44,18.05-.51,6.85-4.69,13.55-12.43,19.92-16.6,13.68-37.7,12.01-51.04,8.9l102.19-121.12-13.25-14.73-65.16,44.09,75.87-94.24,58.37-39.5-3.32,14.16c5.19-1,10.6-1.5,16.23-1.5,1.57,0,3.12.04,4.64.12l6.86-29.29,39.45-26.69,8.38,8.97-16.8,10.43,10.55,16.99,20.18-12.53,8.96,9.59,14.61-13.66-6.25-6.69,41.84-25.98-81.77,101.57,13.39,14.55,60.49-40.93-65.2,77.28,3.44,15.52c1.99.92,49.14,22.26,85.19-7.45,12.22-10.07,18.84-21.58,19.68-34.21,1.21-18.33-10.4-31.35-11.72-32.78l-14.69,13.58c.07.08,7.18,8.09,6.44,18.05-.51,6.85-4.69,13.55-12.43,19.92-16.6,13.68-37.7,12.01-51.04,8.9l102.19-121.12-13.25-14.73-65.16,44.09,75.87-94.24,58.37-39.5-3.32,14.16c5.19-1,10.6-1.5,16.23-1.5,1.57,0,3.12.04,4.64.12l6.86-29.29,39.45-26.69,8.38,8.97-16.8,10.43,10.55,16.99,20.18-12.53,8.96,9.59,14.61-13.66-6.25-6.69,41.84-25.98-81.77,101.57,13.39,14.55,60.49-40.93-65.2,77.28,3.44,15.52c1.99.92,49.14,22.26,85.19-7.45,12.22-10.07,18.84-21.58,19.68-34.21,1.21-18.33-10.4-31.35-11.72-32.78l-14.69,13.58c.07.08,7.18,8.09,6.44,18.05-.51,6.85-4.69,13.55-12.43,19.92-16.6,13.68-37.7,12.01-51.04,8.9l102.19-121.12-13.25-14.73-65.16,44.09,75.87-94.24,58.37-39.5-3.32,14.16c5.19-1,10.6-1.5,16.23-1.5,1.57,0,3.12.04,4.64.12l6.86-29.29,47.56-32.18-6.62-9.79,6.81-6.37-16.35-17.5,16.8-10.43-10.55-16.99-20.18,12.53-8.96-9.59-14.61,13.66,6.25,6.69-41.84,25.98,81.77-101.57-13.39-14.55-60.49,40.93,65.2-77.28-3.44-15.52c-1.99-.92-49.14-22.26-85.19,7.45-12.23,10.07-18.84,21.58-19.68,34.21-1.21,18.33,10.4,31.35,11.72,32.78l14.69-13.58c-.07-.08-7.18-8.09-6.44-18.05.51-6.85,4.69-13.55,12.43-19.92,16.6-13.68,37.7-12.01,51.04-8.9l-102.19,121.12,13.25,14.73,65.16-44.09-75.87,94.24-58.37,39.5,3.32-14.16c-5.19,1-10.6,1.5-16.23,1.5-1.57,0-3.12-.04-4.64-.12l-6.86,29.29-39.45,26.69-8.38-8.97,16.8-10.43-10.55-16.99-20.18,12.53-8.96-9.59-14.61,13.66,6.25,6.69-41.84,25.98,81.77-101.57-13.39-14.55-60.49,40.93,65.2-77.28-3.44-15.52c-1.99-.92-49.14-22.26-85.19,7.45-12.23,10.07-18.84,21.58-19.68,34.21-1.21,18.33,10.4,31.35,11.72,32.78l14.69-13.58c-.07-.08-7.18-8.09-6.44-18.05.51-6.85,4.69-13.55,12.43-19.92,16.6-13.68,37.7-12.01,51.04-8.9l-102.19,121.12,13.25,14.73,65.16-44.09-75.87,94.24-58.37,39.5,3.32-14.16c-5.19,1-10.6,1.5-16.23,1.5-1.57,0-3.12-.04-4.64-.12l-6.86,29.29-39.45,26.69-8.38-8.97,16.8-10.43-10.55-16.99-20.18,12.53-8.96-9.59-14.61,13.66,6.25,6.69-41.84,25.98,81.77-101.57-13.39-14.55-60.49,40.93,65.2-77.28-3.44-15.52c-1.99-.92-49.14-22.26-85.19,7.45-12.22,10.07-18.84,21.58-19.68,34.21-1.21,18.33,10.4,31.35,11.72,32.78l14.69-13.58c-.07-.08-7.18-8.09-6.44-18.05.51-6.85,4.69-13.55,12.43-19.92,16.6-13.68,37.7-12.01,51.04-8.9l-102.19,121.12,13.25,14.73,65.16-44.09-75.87,94.24-58.37,39.5,3.32-14.16c-5.19,1-10.6,1.5-16.23,1.5-1.57,0-3.12-.04-4.64-.12l-6.86,29.29-39.45,26.69-8.38-8.97,16.8-10.43-10.55-16.99-20.18,12.53-8.96-9.59-14.61,13.66,6.25,6.69-41.84,25.98,81.77-101.57-13.39-14.55-60.49,40.93,65.2-77.28-3.44-15.52c-1.99-.92-49.14-22.26-85.19,7.45-12.23,10.07-18.85,21.58-19.68,34.21-1.21,18.33,10.4,31.35,11.72,32.78l14.69-13.58c-.07-.08-7.18-8.09-6.44-18.05.51-6.85,4.69-13.55,12.43-19.92,16.6-13.68,37.7-12.01,51.04-8.9l-102.19,121.12,13.25,14.73,65.16-44.09-75.87,94.24-58.37,39.5,3.32-14.16c-5.19,1-10.6,1.5-16.23,1.5-1.57,0-3.12-.04-4.64-.12l-6.86,29.29-39.45,26.69-8.38-8.97,16.8-10.43-10.55-16.99-20.18,12.53-8.96-9.59-14.61,13.66,6.25,6.69-41.84,25.98,81.77-101.57-13.39-14.55-60.49,40.93,65.2-77.28-3.44-15.52c-1.99-.92-49.14-22.26-85.19,7.45-12.23,10.07-18.84,21.58-19.68,34.21-1.21,18.33,10.4,31.35,11.72,32.78l14.69-13.58c-.07-.08-7.18-8.09-6.44-18.05.51-6.85,4.69-13.55,12.43-19.92,16.6-13.68,37.7-12.01,51.04-8.9l-102.19,121.12,13.25,14.73,65.16-44.09-75.87,94.24-58.37,39.5,3.32-14.16c-5.19,1-10.6,1.5-16.23,1.5-1.57,0-3.12-.04-4.64-.12l-6.86,29.29-39.45,26.69-8.38-8.97,16.8-10.43-10.55-16.99-20.18,12.53-8.96-9.59-14.61,13.66,6.25,6.69-41.84,25.98,81.77-101.57-13.39-14.55-60.49,40.93,65.2-77.28-3.44-15.52c-1.99-.92-49.14-22.26-85.19,7.45-12.22,10.07-18.84,21.58-19.68,34.21-1.21,18.33,10.4,31.35,11.72,32.78l14.69-13.58c-.07-.08-7.18-8.09-6.44-18.05.51-6.85,4.69-13.55,12.43-19.92,16.6-13.68,37.7-12.01,51.04-8.9l-102.19,121.12,13.25,14.73,65.16-44.09-75.87,94.24-58.37,39.5,3.32-14.16c-5.19,1-10.6,1.5-16.23,1.5-1.57,0-3.12-.04-4.64-.12l-6.86,29.29-39.45,26.69-8.38-8.97,16.8-10.43-10.55-16.99-20.18,12.53-8.96-9.59-14.61,13.66,6.25,6.69-41.84,25.98,81.77-101.57-13.39-14.55-60.49,40.93,65.2-77.28-3.44-15.52c-1.99-.92-49.14-22.26-85.19,7.45-12.22,10.07-18.85,21.58-19.68,34.21-1.21,18.33,10.4,31.35,11.72,32.78l14.69-13.58c-.07-.08-7.18-8.09-6.44-18.05.51-6.85,4.69-13.55,12.43-19.92,16.6-13.68,37.7-12.01,51.04-8.9l-102.19,121.12,13.25,14.73,65.16-44.09-75.87,94.24-58.37,39.5,3.32-14.16c-5.19,1-10.6,1.5-16.23,1.5-1.57,0-3.12-.04-4.64-.12l-6.86,29.29L.65,1189.37l11.2,16.57,131.23-88.79,95.1-59.04,12.26,13.11-121.2,82.01,11.21,16.57,59.25-40.1-3.32,14.16c5.19-1,10.6-1.5,16.23-1.5,1.57,0,3.12.04,4.64.12l6.86-29.29,39.45-26.69,8.38,8.97-16.8,10.43,10.55,16.99,20.18-12.53,8.96,9.59,14.61-13.66-6.25-6.69,41.84-25.98-81.77,101.57,13.39,14.55,60.49-40.93-65.2,77.28,3.44,15.52c1.99.92,49.14,22.26,85.19-7.45,12.22-10.07,18.84-21.58,19.68-34.21,1.21-18.33-10.4-31.35-11.72-32.78l-14.69,13.58ZM1673.79,351.8l95.1-59.04,12.26,13.11-121.2,82.01-95.1,59.04-12.26-13.11,121.21-82.01ZM1418.67,479.36l95.1-59.04,12.26,13.11-121.2,82.01-95.1,59.04-12.26-13.11,121.21-82.01ZM1163.55,606.92l95.1-59.04,12.26,13.11-121.2,82.01-95.1,59.04-12.26-13.11,121.21-82.01ZM908.43,734.48l95.1-59.04,12.26,13.11-121.21,82.01-95.1,59.04-12.26-13.11,121.21-82.01ZM653.31,862.03l95.1-59.04,12.26,13.11-121.21,82.01-95.1,59.04-12.26-13.11,121.2-82.01ZM289.24,1084.72l-12.26-13.11,121.2-82.01,95.1-59.04,12.26,13.11-121.2,82.01-95.1,59.04Z"/>
      <path class="cls-1" d="M442.97,1052.68l-1.97,8.41,19.47,4.56,4.53-19.34c-8.35.38-15.73,2.52-22.03,6.37Z"/>
      <path class="cls-1" d="M30.73,982.81l8.96,9.59,14.61-13.66-6.25-6.69,41.84-25.98-81.77,101.57,13.39,14.55,60.49-40.93-65.2,77.28,3.44,15.52c1.99.92,49.14,22.26,85.19-7.45,12.23-10.07,18.85-21.58,19.68-34.21,1.21-18.33-10.4-31.35-11.72-32.78l-14.69,13.58c.07.08,7.18,8.09,6.44,18.05-.51,6.85-4.69,13.55-12.43,19.92-16.6,13.68-37.7,12.01-51.04,8.9l102.19-121.12-13.25-14.73-65.16,44.09,75.87-94.24,58.37-39.5-3.32,14.16c5.19-1,10.6-1.5,16.23-1.5,1.57,0,3.12.04,4.64.12l6.86-29.29,39.45-26.69,8.38,8.97-16.8,10.43,10.55,16.99,20.18-12.53,8.96,9.59,14.61-13.66-6.25-6.69,41.84-25.98-81.77,101.57,13.39,14.55,60.49-40.93-65.2,77.28,3.44,15.52c1.99.92,49.14,22.26,85.19-7.45,12.22-10.07,18.84-21.58,19.68-34.21,1.21-18.33-10.4-31.35-11.72-32.78l-14.69,13.58c.07.08,7.18,8.09,6.44,18.05-.51,6.85-4.69,13.55-12.43,19.92-16.6,13.68-37.7,12.01-51.04,8.9l102.19-121.12-13.25-14.73-65.16,44.09,75.87-94.24,58.37-39.5-3.32,14.16c5.19-1,10.6-1.5,16.23-1.5,1.57,0,3.12.04,4.64.12l6.86-29.29,39.45-26.69,8.38,8.97-16.8,10.43,10.55,16.99,20.18-12.53,8.96,9.59,14.61-13.66-6.25-6.69,41.84-25.98-81.77,101.57,13.39,14.55,60.49-40.93-65.2,77.28,3.44,15.52c1.99.92,49.14,22.26,85.19-7.45,12.22-10.07,18.84-21.58,19.68-34.21,1.21-18.33-10.4-31.35-11.72-32.78l-14.69,13.58c.07.08,7.18,8.09,6.44,18.05-.51,6.85-4.69,13.55-12.43,19.92-16.6,13.68-37.7,12.01-51.04,8.9l102.19-121.12-13.25-14.73-65.16,44.09,75.87-94.24,58.37-39.5-3.32,14.16c5.19-1,10.6-1.5,16.23-1.5,1.57,0,3.12.04,4.64.12l6.86-29.29,39.45-26.69,8.38,8.97-16.8,10.43,10.55,16.99,20.18-12.53,8.96,9.59,14.61-13.66-6.25-6.69,41.84-25.98-81.77,101.57,13.39,14.55,60.49-40.93-65.2,77.28,3.44,15.52c1.99.92,49.14,22.26,85.19-7.45,12.23-10.07,18.85-21.58,19.68-34.21,1.21-18.33-10.4-31.35-11.72-32.78l-14.69,13.58c.07.08,7.18,8.09,6.44,18.05-.51,6.85-4.69,13.55-12.43,19.92-16.6,13.68-37.7,12.01-51.04,8.9l102.19-121.12-13.25-14.73-65.16,44.09,75.87-94.24,58.37-39.5-3.32,14.16c5.19-1,10.6-1.5,16.23-1.5,1.57,0,3.12.04,4.64.12l6.86-29.29,39.45-26.69,8.38,8.97-16.8,10.43,10.55,16.99,20.18-12.53,8.96,9.59,14.61-13.66-6.25-6.69,41.84-25.98-81.77,101.57,13.39,14.55,60.49-40.93-65.2,77.28,3.44,15.52c1.99.92,49.14,22.26,85.19-7.45,12.23-10.07,18.84-21.58,19.68-34.21,1.21-18.33-10.4-31.35-11.72-32.78l-14.69,13.58c.07.08,7.18,8.09,6.44,18.05-.51,6.85-4.69,13.55-12.43,19.92-16.6,13.68-37.7,12.01-51.04,8.9l102.19-121.12-13.25-14.73-65.16,44.09,75.87-94.24,58.37-39.5-3.32,14.16c5.19-1,10.6-1.5,16.23-1.5,1.57,0,3.12.04,4.64.12l6.86-29.29,39.45-26.69,8.38,8.97-16.8,10.43,10.55,16.99,20.18-12.53,8.96,9.59,14.61-13.66-6.25-6.69,41.84-25.98-81.77,101.57,13.39,14.55,60.49-40.93-65.2,77.28,3.44,15.52c1.99.92,49.14,22.26,85.19-7.45,12.22-10.07,18.84-21.58,19.68-34.21,1.21-18.33-10.4-31.35-11.72-32.78l-14.69,13.58c.07.08,7.18,8.09,6.44,18.05-.51,6.85-4.69,13.55-12.43,19.92-16.6,13.68-37.7,12.01-51.04,8.9l102.19-121.12-13.25-14.73-65.16,44.09,75.87-94.24,58.37-39.5-3.32,14.16c5.19-1,10.6-1.5,16.23-1.5,1.57,0,3.12.04,4.64.12l6.86-29.29,39.45-26.69,8.38,8.97-16.8,10.43,10.55,16.99,20.18-12.53,8.96,9.59,14.61-13.66-6.25-6.69,41.84-25.98-81.77,101.57,13.39,14.55,60.49-40.93-65.2,77.28,3.44,15.52c1.99.92,49.14,22.26,85.19-7.45,12.22-10.07,18.84-21.58,19.68-34.21,1.21-18.33-10.4-31.35-11.72-32.78l-14.69,13.58c.07.08,7.18,8.09,6.44,18.05-.51,6.85-4.69,13.55-12.43,19.92-16.6,13.68-37.7,12.01-51.04,8.9l102.19-121.12-13.25-14.73-65.16,44.09,75.87-94.24,58.37-39.5-3.32,14.16c5.19-1,10.6-1.5,16.23-1.5,1.57,0,3.12.04,4.64.12l6.86-29.29,47.56-32.18-11.2-16.57-131.23,88.79-95.1,59.04-12.26-13.11,121.21-82.01-11.21-16.57-59.25,40.1,3.32-14.16c-5.19,1-10.6,1.5-16.23,1.5-1.57,0-3.12-.04-4.64-.12l-6.86,29.29-39.45,26.69-8.38-8.97,16.8-10.43-10.55-16.99-20.18,12.53-8.96-9.59-14.61,13.66,6.25,6.69-41.84,25.98,81.77-101.57-13.39-14.55-60.49,40.93,65.2-77.28-3.44-15.52c-1.99-.92-49.14-22.26-85.19,7.45-12.23,10.07-18.84,21.58-19.68,34.21-1.21,18.33,10.4,31.35,11.72,32.78l14.69-13.58c-.07-.08-7.18-8.09-6.44-18.05.51-6.85,4.69-13.55,12.43-19.92,16.6-13.68,37.7-12.01,51.04-8.9l-102.19,121.12,13.25,14.73,65.16-44.09-75.87,94.24-58.37,39.5,3.32-14.16c-5.19,1-10.6,1.5-16.23,1.5-1.57,0-3.12-.04-4.64-.12l-6.86,29.29-39.45,26.69-8.38-8.97,16.8-10.43-10.55-16.99-20.18,12.53-8.96-9.59-14.61,13.66,6.25,6.69-41.84,25.98,81.77-101.57-13.39-14.55-60.49,40.93,65.2-77.28-3.44-15.52c-1.99-.92-49.14-22.26-85.19,7.45-12.22,10.07-18.84,21.58-19.68,34.21-1.21,18.33,10.4,31.35,11.72,32.78l14.69-13.58c-.07-.08-7.18-8.09-6.44-18.05.51-6.85,4.69-13.55,12.43-19.92,16.6-13.68,37.7-12.01,51.04-8.9l-102.19,121.12,13.25,14.73,65.16-44.09-75.87,94.24-58.37,39.5,3.32-14.16c-5.19,1-10.6,1.5-16.23,1.5-1.57,0-3.12-.04-4.64-.12l-6.86,29.29-39.45,26.69-8.38-8.97,16.8-10.43-10.55-16.99-20.18,12.53-8.96-9.59-14.61,13.66,6.25,6.69-41.84,25.98,81.77-101.57-13.39-14.55-60.49,40.93,65.2-77.28-3.44-15.52c-1.99-.92-49.14-22.26-85.19,7.45-12.23,10.07-18.85,21.58-19.68,34.21-1.21,18.33,10.4,31.35,11.72,32.78l14.69-13.58c-.07-.08-7.18-8.09-6.44-18.05.51-6.85,4.69-13.55,12.43-19.92,16.6-13.68,37.7-12.01,51.04-8.9l-102.19,121.12,13.25,14.73,65.16-44.09-75.87,94.24-58.37,39.5,3.32-14.16c-5.19,1-10.6,1.5-16.23,1.5-1.57,0-3.12-.04-4.64-.12l-6.86,29.29-39.45,26.69-8.38-8.97,16.8-10.43-10.55-16.99-20.18,12.53-8.96-9.59-14.61,13.66,6.25,6.69-41.84,25.98,81.77-101.57-13.39-14.55-60.49,40.93,65.2-77.28-3.44-15.52c-1.99-.92-49.14-22.26-85.19,7.45-12.23,10.07-18.84,21.58-19.68,34.21-1.21,18.33,10.4,31.35,11.72,32.78l14.69-13.58c-.07-.08-7.18-8.09-6.44-18.05.51-6.85,4.69-13.55,12.43-19.92,16.6-13.68,37.7-12.01,51.04-8.9l-102.19,121.12,13.25,14.73,65.16-44.09-75.87,94.24-58.37,39.5,3.32-14.16c-5.19,1-10.6,1.5-16.23,1.5-1.57,0-3.12-.04-4.64-.12l-6.86,29.29-39.45,26.69-8.38-8.97,16.8-10.43-10.55-16.99-20.18,12.53-8.96-9.59-14.61,13.66,6.25,6.69-41.84,25.98,81.77-101.57-13.39-14.55-60.49,40.93,65.2-77.28-3.44-15.52c-1.99-.92-49.14-22.26-85.19,7.45-12.22,10.07-18.84,21.58-19.68,34.21-1.21,18.33,10.4,31.35,11.72,32.78l14.69-13.58c-.07-.08-7.18-8.09-6.44-18.05.51-6.85,4.69-13.55,12.43-19.92,16.6-13.68,37.7-12.01,51.04-8.9l-102.19,121.12,13.25,14.73,65.16-44.09-75.87,94.24-58.37,39.5,3.32-14.16c-5.19,1-10.6,1.5-16.23,1.5-1.57,0-3.12-.04-4.64-.12l-6.86,29.29-39.45,26.69-8.38-8.97,16.8-10.43-10.55-16.99-20.18,12.53-8.96-9.59-14.61,13.66,6.25,6.69-41.84,25.98,81.77-101.57-13.39-14.55-60.49,40.93,65.2-77.28-3.44-15.52c-1.99-.92-49.14-22.26-85.19,7.45-12.22,10.07-18.85,21.58-19.68,34.21-1.21,18.33,10.4,31.35,11.72,32.78l14.69-13.58c-.07-.08-7.18-8.09-6.44-18.05.51-6.85,4.69-13.55,12.43-19.92,16.6-13.68,37.7-12.01,51.04-8.9l-102.19,121.12,13.25,14.73,65.16-44.09-75.87,94.24-58.37,39.5,3.32-14.16c-5.19,1-10.6,1.5-16.23,1.5-1.57,0-3.12-.04-4.64-.12l-6.86,29.29L.65,934.25l6.62,9.79-6.81,6.37,16.35,17.5-16.8,10.43,10.55,16.99,20.18-12.53ZM1418.67,224.24l95.1-59.04,12.26,13.11-121.2,82.01-95.1,59.04-12.26-13.11,121.21-82.01ZM1163.55,351.8l95.1-59.04,12.26,13.11-121.2,82.01-95.1,59.04-12.26-13.11,121.21-82.01ZM908.43,479.36l95.1-59.04,12.26,13.11-121.21,82.01-95.1,59.04-12.26-13.11,121.21-82.01ZM653.31,606.92l95.1-59.04,12.26,13.11-121.21,82.01-95.1,59.04-12.26-13.11,121.2-82.01ZM398.19,734.48l95.1-59.04,12.26,13.11-121.2,82.01-95.1,59.04-12.26-13.11,121.2-82.01ZM143.08,862.03l95.1-59.04,12.26,13.11-121.2,82.01-95.1,59.04-12.26-13.11,121.21-82.01Z"/>
      <path class="cls-1" d="M187.86,925.12l-1.97,8.41,19.47,4.56,4.53-19.34c-8.35.38-15.73,2.52-22.03,6.37Z"/>
      <path class="cls-1" d="M594.68,835.02l1.97-8.41-19.47-4.56-4.53,19.34c8.35-.38,15.73-2.52,22.03-6.37Z"/>
      <path class="cls-1" d="M339.56,962.58l1.97-8.41-19.47-4.56-4.53,19.34c8.35-.38,15.73-2.52,22.03-6.37Z"/>
      <path class="cls-1" d="M442.97,797.56l-1.97,8.41,19.47,4.56,4.53-19.34c-8.35.38-15.73,2.52-22.03,6.37Z"/>
      <path class="cls-1" d="M30.73,727.69l8.96,9.59,14.61-13.66-6.25-6.69,41.84-25.98-81.77,101.57,13.39,14.55,60.49-40.93-65.2,77.28,3.44,15.52c1.99.92,49.14,22.26,85.19-7.45,12.23-10.07,18.85-21.58,19.68-34.21,1.21-18.33-10.4-31.35-11.72-32.78l-14.69,13.58c.07.08,7.18,8.09,6.44,18.05-.51,6.85-4.69,13.55-12.43,19.92-16.6,13.68-37.7,12.01-51.04,8.9l102.19-121.12-13.25-14.73-65.16,44.09,75.87-94.24,58.37-39.5-3.32,14.16c5.19-1,10.6-1.5,16.23-1.5,1.57,0,3.12.04,4.64.12l6.86-29.29,39.45-26.69,8.38,8.97-16.8,10.43,10.55,16.99,20.18-12.53,8.96,9.59,14.61-13.66-6.25-6.69,41.84-25.98-81.77,101.57,13.39,14.55,60.49-40.93-65.2,77.28,3.44,15.52c1.99.92,49.14,22.26,85.19-7.45,12.22-10.07,18.84-21.58,19.68-34.21,1.21-18.33-10.4-31.35-11.72-32.78l-14.69,13.58c.07.08,7.18,8.09,6.44,18.05-.51,6.85-4.69,13.55-12.43,19.92-16.6,13.68-37.7,12.01-51.04,8.9l102.19-121.12-13.25-14.73-65.16,44.09,75.87-94.24,58.37-39.5-3.32,14.16c5.19-1,10.6-1.5,16.23-1.5,1.57,0,3.12.04,4.64.12l6.86-29.29,39.45-26.69,8.38,8.97-16.8,10.43,10.55,16.99,20.18-12.53,8.96,9.59,14.61-13.66-6.25-6.69,41.84-25.98-81.77,101.57,13.39,14.55,60.49-40.93-65.2,77.28,3.44,15.52c1.99.92,49.14,22.26,85.19-7.45,12.22-10.07,18.84-21.58,19.68-34.21,1.21-18.33-10.4-31.35-11.72-32.78l-14.69,13.58c.07.08,7.18,8.09,6.44,18.05-.51,6.85-4.69,13.55-12.43,19.92-16.6,13.68-37.7,12.01-51.04,8.9l102.19-121.12-13.25-14.73-65.16,44.09,75.87-94.24,58.37-39.5-3.32,14.16c5.19-1,10.6-1.5,16.23-1.5,1.57,0,3.12.04,4.64.12l6.86-29.29,39.45-26.69,8.38,8.97-16.8,10.43,10.55,16.99,20.18-12.53,8.96,9.59,14.61-13.66-6.25-6.69,41.84-25.98-81.77,101.57,13.39,14.55,60.49-40.93-65.2,77.28,3.44,15.52c1.99.92,49.14,22.26,85.19-7.45,12.23-10.07,18.85-21.58,19.68-34.21,1.21-18.33-10.4-31.35-11.72-32.78l-14.69,13.58c.07.08,7.18,8.09,6.44,18.05-.51,6.85-4.69,13.55-12.43,19.92-16.6,13.68-37.7,12.01-51.04,8.9l102.19-121.12-13.25-14.73-65.16,44.09,75.87-94.24,58.37-39.5-3.32,14.16c5.19-1,10.6-1.5,16.23-1.5,1.57,0,3.12.04,4.64.12l6.86-29.29,39.45-26.69,8.38,8.97-16.8,10.43,10.55,16.99,20.18-12.53,8.96,9.59,14.61-13.66-6.25-6.69,41.84-25.98-81.77,101.57,13.39,14.55,60.49-40.93-65.2,77.28,3.44,15.52c1.99.92,49.14,22.26,85.19-7.45,12.23-10.07,18.84-21.58,19.68-34.21,1.21-18.33-10.4-31.35-11.72-32.78l-14.69,13.58c.07.08,7.18,8.09,6.44,18.05-.51,6.85-4.69,13.55-12.43,19.92-16.6,13.68-37.7,12.01-51.04,8.9l102.19-121.12-13.25-14.73-65.16,44.09,75.87-94.24,58.37-39.5-3.32,14.16c5.19-1,10.6-1.5,16.23-1.5,1.57,0,3.12.04,4.64.12l6.86-29.29,39.45-26.69,8.38,8.97-16.8,10.43,10.55,16.99,20.18-12.53,8.96,9.59,14.61-13.66-6.25-6.69,41.84-25.98-81.77,101.57,13.39,14.55,60.49-40.93-65.2,77.28,3.44,15.52c1.99.92,49.14,22.26,85.19-7.45,12.22-10.07,18.84-21.58,19.68-34.21,1.21-18.33-10.4-31.35-11.72-32.78l-14.69,13.58c.07.08,7.18,8.09,6.44,18.05-.51,6.85-4.69,13.55-12.43,19.92-16.6,13.68-37.7,12.01-51.04,8.9l102.19-121.12-13.25-14.73-65.16,44.09,76.84-95.45-13.06-14.77-95.1,59.04-19.06-20.4-6.01,5.62-3.71-5.49-131.23,88.79-95.1,59.04-12.26-13.11,121.21-82.01-11.21-16.57-59.25,40.1,3.32-14.16c-5.19,1-10.6,1.5-16.23,1.5-1.57,0-3.12-.04-4.64-.12l-6.86,29.29-39.45,26.69-8.38-8.97,16.8-10.43-10.55-16.99-20.18,12.53-8.96-9.59-14.61,13.66,6.25,6.69-41.84,25.98,81.77-101.57-13.39-14.55-60.49,40.93,65.2-77.28-3.44-15.52c-1.99-.92-49.14-22.26-85.19,7.45-12.23,10.07-18.85,21.58-19.68,34.21-1.21,18.33,10.4,31.35,11.72,32.78l14.69-13.58c-.07-.08-7.18-8.09-6.44-18.05.51-6.85,4.69-13.55,12.43-19.92,16.6-13.68,37.7-12.01,51.04-8.9l-102.19,121.12,13.25,14.73,65.16-44.09-75.87,94.24-58.37,39.5,3.32-14.16c-5.19,1-10.6,1.5-16.23,1.5-1.57,0-3.12-.04-4.64-.12l-6.86,29.29-39.45,26.69-8.38-8.97,16.8-10.43-10.55-16.99-20.18,12.53-8.96-9.59-14.61,13.66,6.25,6.69-41.84,25.98,81.77-101.57-13.39-14.55-60.49,40.93,65.2-77.28-3.44-15.52c-1.99-.92-49.14-22.26-85.19,7.45-12.23,10.07-18.84,21.58-19.68,34.21-1.21,18.33,10.4,31.35,11.72,32.78l14.69-13.58c-.07-.08-7.18-8.09-6.44-18.05.51-6.85,4.69-13.55,12.43-19.92,16.6-13.68,37.7-12.01,51.04-8.9l-102.19,121.12,13.25,14.73,65.16-44.09-75.87,94.24-58.37,39.5,3.32-14.16c-5.19,1-10.6,1.5-16.23,1.5-1.57,0-3.12-.04-4.64-.12l-6.86,29.29-39.45,26.69-8.38-8.97,16.8-10.43-10.55-16.99-20.18,12.53-8.96-9.59-14.61,13.66,6.25,6.69-41.84,25.98,81.77-101.57-13.39-14.55-60.49,40.93,65.2-77.28-3.44-15.52c-1.99-.92-49.14-22.26-85.19,7.45-12.22,10.07-18.84,21.58-19.68,34.21-1.21,18.33,10.4,31.35,11.72,32.78l14.69-13.58c-.07-.08-7.18-8.09-6.44-18.05.51-6.85,4.69-13.55,12.43-19.92,16.6-13.68,37.7-12.01,51.04-8.9l-102.19,121.12,13.25,14.73,65.16-44.09-75.87,94.24-58.37,39.5,3.32-14.16c-5.19,1-10.6,1.5-16.23,1.5-1.57,0-3.12-.04-4.64-.12l-6.86,29.29-39.45,26.69-8.38-8.97,16.8-10.43-10.55-16.99-20.18,12.53-8.96-9.59-14.61,13.66,6.25,6.69-41.84,25.98,81.77-101.57-13.39-14.55-60.49,40.93,65.2-77.28-3.44-15.52c-1.99-.92-49.14-22.26-85.19,7.45-12.22,10.07-18.85,21.58-19.68,34.21-1.21,18.33,10.4,31.35,11.72,32.78l14.69-13.58c-.07-.08-7.18-8.09-6.44-18.05.51-6.85,4.69-13.55,12.43-19.92,16.6-13.68,37.7-12.01,51.04-8.9l-102.19,121.12,13.25,14.73,65.16-44.09-75.87,94.24-58.37,39.5,3.32-14.16c-5.19,1-10.6,1.5-16.23,1.5-1.57,0-3.12-.04-4.64-.12l-6.86,29.29L.65,679.14l6.62,9.79-6.81,6.37,16.35,17.5-16.8,10.43,10.55,16.99,20.18-12.53ZM908.43,224.24l95.1-59.04,12.26,13.11-121.21,82.01-95.1,59.04-12.26-13.11,121.21-82.01ZM653.31,351.8l95.1-59.04,12.26,13.11-121.21,82.01-95.1,59.04-12.26-13.11,121.2-82.01ZM398.19,479.36l95.1-59.04,12.26,13.11-121.2,82.01-95.1,59.04-12.26-13.11,121.2-82.01ZM143.08,606.92l95.1-59.04,12.26,13.11-121.2,82.01-95.1,59.04-12.26-13.11,121.21-82.01Z"/>
      <path class="cls-1" d="M187.86,670.01l-1.97,8.41,19.47,4.56,4.53-19.34c-8.35.38-15.73,2.52-22.03,6.37Z"/>
      <path class="cls-1" d="M339.56,707.47l1.97-8.41-19.47-4.56-4.53,19.34c8.35-.38,15.73-2.52,22.03-6.37Z"/>
      <path class="cls-1" d="M594.68,579.91l1.97-8.41-19.47-4.56-4.53,19.34c8.35-.38,15.73-2.52,22.03-6.37Z"/>
      <path class="cls-1" d="M442.97,542.45l-1.97,8.41,19.47,4.56,4.53-19.34c-8.35.38-15.73,2.52-22.03,6.37Z"/>
      <path class="cls-1" d="M30.73,472.57l8.96,9.59,14.61-13.66-6.25-6.69,41.84-25.98-81.77,101.57,13.39,14.55,60.49-40.93-65.2,77.28,3.44,15.52c1.99.92,49.14,22.26,85.19-7.45,12.23-10.07,18.85-21.58,19.68-34.21,1.21-18.33-10.4-31.35-11.72-32.78l-14.69,13.58c.07.08,7.18,8.09,6.44,18.05-.51,6.85-4.69,13.55-12.43,19.92-16.6,13.68-37.7,12.01-51.04,8.9l102.19-121.12-13.25-14.73-65.16,44.09,75.87-94.24,58.37-39.5-3.32,14.16c5.19-1,10.6-1.5,16.23-1.5,1.57,0,3.12.04,4.64.12l6.86-29.29,39.45-26.69,8.38,8.97-16.8,10.43,10.55,16.99,20.18-12.53,8.96,9.59,14.61-13.66-6.25-6.69,41.84-25.98-81.77,101.57,13.39,14.55,60.49-40.93-65.2,77.28,3.44,15.52c1.99.92,49.14,22.26,85.19-7.45,12.22-10.07,18.84-21.58,19.68-34.21,1.21-18.33-10.4-31.35-11.72-32.78l-14.69,13.58c.07.08,7.18,8.09,6.44,18.05-.51,6.85-4.69,13.55-12.43,19.92-16.6,13.68-37.7,12.01-51.04,8.9l102.19-121.12-13.25-14.73-65.16,44.09,75.87-94.24,58.37-39.5-3.32,14.16c5.19-1,10.6-1.5,16.23-1.5,1.57,0,3.12.04,4.64.12l6.86-29.29,39.45-26.69,8.38,8.97-16.8,10.43,10.55,16.99,20.18-12.53,8.96,9.59,14.61-13.66-6.25-6.69,41.84-25.98-81.77,101.57,13.39,14.55,60.49-40.93-65.2,77.28,3.44,15.52c1.99.92,49.14,22.26,85.19-7.45,12.22-10.07,18.84-21.58,19.68-34.21,1.21-18.33-10.4-31.35-11.72-32.78l-14.69,13.58c.07.08,7.18,8.09,6.44,18.05-.51,6.85-4.69,13.55-12.43,19.92-16.6,13.68-37.7,12.01-51.04,8.9l102.19-121.12-13.25-14.73-65.16,44.09,75.87-94.24,58.37-39.5-3.32,14.16c5.19-1,10.6-1.5,16.23-1.5,1.57,0,3.12.04,4.64.12l6.86-29.29,39.45-26.69,8.38,8.97-16.8,10.43,10.55,16.99,20.18-12.53,8.96,9.59,14.61-13.66-6.25-6.69,41.84-25.98-81.77,101.57,13.39,14.55,60.49-40.93-65.2,77.28,3.44,15.52c1.99.92,49.14,22.26,85.19-7.45,12.23-10.07,18.85-21.58,19.68-34.21,1.21-18.33-10.4-31.35-11.72-32.78l-14.69,13.58c.07.08,7.18,8.09,6.44,18.05-.51,6.85-4.69,13.55-12.43,19.92-16.6,13.68-37.7,12.01-51.04,8.9l102.19-121.12-13.25-14.73-65.16,44.09,76.84-95.45-13.06-14.77-95.1,59.04-19.06-20.4-6.01,5.62-3.71-5.49-131.23,88.79-95.1,59.04-12.26-13.11,121.2-82.01-11.21-16.57-59.25,40.1,3.32-14.16c-5.19,1-10.6,1.5-16.23,1.5-1.57,0-3.12-.04-4.64-.12l-6.86,29.29-39.45,26.69-8.38-8.97,16.8-10.43-10.55-16.99-20.18,12.53-8.96-9.59-14.61,13.66,6.25,6.69-41.84,25.98,81.77-101.57-13.39-14.55-60.49,40.93,65.2-77.28-3.44-15.52c-1.99-.92-49.14-22.26-85.19,7.45-12.22,10.07-18.84,21.58-19.68,34.21-1.21,18.33,10.4,31.35,11.72,32.78l14.69-13.58c-.07-.08-7.18-8.09-6.44-18.05.51-6.85,4.69-13.55,12.43-19.92,16.6-13.68,37.7-12.01,51.04-8.9l-102.19,121.12,13.25,14.73,65.16-44.09-75.87,94.24-58.37,39.5,3.32-14.16c-5.19,1-10.6,1.5-16.23,1.5-1.57,0-3.12-.04-4.64-.12l-6.86,29.29-39.45,26.69-8.38-8.97,16.8-10.43-10.55-16.99-20.18,12.53-8.96-9.59-14.61,13.66,6.25,6.69-41.84,25.98,81.77-101.57-13.39-14.55-60.49,40.93,65.2-77.28-3.44-15.52c-1.99-.92-49.14-22.26-85.19,7.45-12.22,10.07-18.85,21.58-19.68,34.21-1.21,18.33,10.4,31.35,11.72,32.78l14.69-13.58c-.07-.08-7.18-8.09-6.44-18.05.51-6.85,4.69-13.55,12.43-19.92,16.6-13.68,37.7-12.01,51.04-8.9l-102.19,121.12,13.25,14.73,65.16-44.09-75.87,94.24-58.37,39.5,3.32-14.16c-5.19,1-10.6,1.5-16.23,1.5-1.57,0-3.12-.04-4.64-.12l-6.86,29.29L.65,424.02l6.62,9.79-6.81,6.37,16.35,17.5-16.8,10.43,10.55,16.99,20.18-12.53ZM398.19,224.24l95.1-59.04,12.26,13.11-121.2,82.01-95.1,59.04-12.26-13.11,121.2-82.01ZM143.08,351.8l95.1-59.04,12.26,13.11-121.2,82.01-95.1,59.04-12.26-13.11,121.21-82.01Z"/>
      <path class="cls-1" d="M187.86,414.89l-1.97,8.41,19.47,4.56,4.53-19.34c-8.35.38-15.73,2.52-22.03,6.37Z"/>
      <path class="cls-1" d="M594.68,324.79l1.97-8.41-19.47-4.56-4.53,19.34c8.35-.38,15.73-2.52,22.03-6.37Z"/>
      <path class="cls-1" d="M339.56,452.35l1.97-8.41-19.47-4.56-4.53,19.34c8.35-.38,15.73-2.52,22.03-6.37Z"/>
      <path class="cls-1" d="M442.97,287.33l-1.97,8.41,19.47,4.56,4.53-19.34c-8.35.38-15.73,2.52-22.03,6.37Z"/>
      <path class="cls-1" d="M10.55,229.98l20.18-12.53,8.96,9.59,14.61-13.66-6.25-6.69,41.84-25.98L8.11,282.3l13.39,14.55,60.49-40.93-65.2,77.28,3.44,15.52c1.99.92,49.14,22.26,85.19-7.45,12.23-10.07,18.85-21.58,19.68-34.21,1.21-18.33-10.4-31.35-11.72-32.78l-14.69,13.58c.07.08,7.18,8.09,6.44,18.05-.51,6.85-4.69,13.55-12.43,19.92-16.6,13.68-37.7,12.01-51.04,8.9l102.19-121.12-13.25-14.73-65.16,44.09,75.87-94.24,58.37-39.5-3.32,14.16c5.19-1,10.6-1.5,16.23-1.5,1.57,0,3.12.04,4.64.12l6.86-29.29,39.45-26.69,8.38,8.97-16.8,10.43,10.55,16.99,20.18-12.53,8.96,9.59,14.61-13.66-6.25-6.69,41.84-25.98-81.77,101.57,13.39,14.55,60.49-40.93-65.2,77.28,3.44,15.52c1.99.92,49.14,22.26,85.19-7.45,12.22-10.07,18.84-21.58,19.68-34.21,1.21-18.33-10.4-31.35-11.72-32.78l-14.69,13.58c.07.08,7.18,8.09,6.44,18.05-.51,6.85-4.69,13.55-12.43,19.92-16.6,13.68-37.7,12.01-51.04,8.9l102.19-121.12-13.25-14.73-65.16,44.09,76.84-95.45-13.06-14.77-95.1,59.04-19.06-20.4-6.01,5.62-3.71-5.49-131.23,88.79-95.1,59.04-12.26-13.11,121.21-82.01-11.21-16.57-59.25,40.1,3.32-14.16c-5.19,1-10.6,1.5-16.23,1.5-1.57,0-3.12-.04-4.64-.12l-6.86,29.29L.65,168.9l6.62,9.79-6.81,6.37,16.35,17.5L0,212.99l10.55,16.99Z"/>
      <path class="cls-1" d="M187.86,159.77l-1.97,8.41,19.47,4.56,4.53-19.34c-8.35.38-15.73,2.52-22.03,6.37Z"/>
      <path class="cls-1" d="M339.56,197.23l1.97-8.41-19.47-4.56-4.53,19.34c8.35-.38,15.73-2.52,22.03-6.37Z"/>
      <path class="cls-1" d="M1104.92,1090.14l1.97-8.41-19.47-4.56-4.53,19.34c8.35-.38,15.73-2.52,22.03-6.37Z"/>
      <path class="cls-1" d="M953.21,1052.68l-1.97,8.41,19.47,4.56,4.53-19.34c-8.35.38-15.73,2.52-22.03,6.37Z"/>
      <path class="cls-1" d="M698.09,925.12l-1.97,8.41,19.47,4.56,4.53-19.34c-8.35.38-15.73,2.52-22.03,6.37Z"/>
      <path class="cls-1" d="M1104.92,835.02l1.97-8.41-19.47-4.56-4.53,19.34c8.35-.38,15.73-2.52,22.03-6.37Z"/>
      <path class="cls-1" d="M849.8,962.58l1.97-8.41-19.47-4.56-4.53,19.34c8.35-.38,15.73-2.52,22.03-6.37Z"/>
      <path class="cls-1" d="M953.21,797.56l-1.97,8.41,19.47,4.56,4.53-19.34c-8.35.38-15.73,2.52-22.03,6.37Z"/>
      <path class="cls-1" d="M698.09,670.01l-1.97,8.41,19.47,4.56,4.53-19.34c-8.35.38-15.73,2.52-22.03,6.37Z"/>
      <path class="cls-1" d="M849.8,707.47l1.97-8.41-19.47-4.56-4.53,19.34c8.35-.38,15.73-2.52,22.03-6.37Z"/>
      <path class="cls-1" d="M1104.92,579.91l1.97-8.41-19.47-4.56-4.53,19.34c8.35-.38,15.73-2.52,22.03-6.37Z"/>
      <path class="cls-1" d="M953.21,542.45l-1.97,8.41,19.47,4.56,4.53-19.34c-8.35.38-15.73,2.52-22.03,6.37Z"/>
      <path class="cls-1" d="M698.09,414.89l-1.97,8.41,19.47,4.56,4.53-19.34c-8.35.38-15.73,2.52-22.03,6.37Z"/>
      <path class="cls-1" d="M1104.92,324.79l1.97-8.41-19.47-4.56-4.53,19.34c8.35-.38,15.73-2.52,22.03-6.37Z"/>
      <path class="cls-1" d="M849.8,452.35l1.97-8.41-19.47-4.56-4.53,19.34c8.35-.38,15.73-2.52,22.03-6.37Z"/>
      <path class="cls-1" d="M953.21,287.33l-1.97,8.41,19.47,4.56,4.53-19.34c-8.35.38-15.73,2.52-22.03,6.37Z"/>
      <path class="cls-1" d="M698.09,159.77l-1.97,8.41,19.47,4.56,4.53-19.34c-8.35.38-15.73,2.52-22.03,6.37Z"/>
      <path class="cls-1" d="M849.8,197.23l1.97-8.41-19.47-4.56-4.53,19.34c8.35-.38,15.73-2.52,22.03-6.37Z"/>
      <path class="cls-1" d="M1615.15,1090.14l1.97-8.41-19.47-4.56-4.53,19.34c8.35-.38,15.73-2.52,22.03-6.37Z"/>
      <path class="cls-1" d="M1792.46,1019.93l-20.18,12.53-8.96-9.59-14.61,13.66,6.25,6.69-41.84,25.98,81.77-101.57-13.39-14.55-60.49,40.93,65.2-77.28-3.44-15.52c-1.99-.92-49.14-22.26-85.19,7.45-12.23,10.07-18.84,21.58-19.68,34.21-1.21,18.33,10.4,31.35,11.72,32.78l14.69-13.58c-.07-.08-7.18-8.09-6.44-18.05.51-6.85,4.69-13.55,12.43-19.92,16.6-13.68,37.7-12.01,51.04-8.9l-102.19,121.12,13.25,14.73,65.16-44.09-75.87,94.24-58.37,39.5,3.32-14.16c-5.19,1-10.6,1.5-16.23,1.5-1.57,0-3.12-.04-4.64-.12l-6.86,29.29-39.45,26.69-8.38-8.97,16.8-10.43-10.55-16.99-20.18,12.53-8.96-9.59-14.61,13.66,6.25,6.69-41.84,25.98,81.77-101.57-13.39-14.55-60.49,40.93,65.2-77.28-3.44-15.52c-1.99-.92-49.14-22.26-85.19,7.45-12.23,10.07-18.84,21.58-19.68,34.21-1.21,18.33,10.4,31.35,11.72,32.78l14.69-13.58c-.07-.08-7.18-8.09-6.44-18.05.51-6.85,4.69-13.55,12.43-19.92,16.6-13.68,37.7-12.01,51.04-8.9l-102.19,121.12,13.25,14.73,65.16-44.09-76.84,95.45,13.06,14.77,95.1-59.04,19.06,20.4,6.01-5.62,3.71,5.49,131.23-88.79,95.1-59.04,12.26,13.11-121.2,82.01,11.21,16.57,59.25-40.1-3.32,14.16c5.19-1,10.6-1.5,16.23-1.5,1.57,0,3.12.04,4.64.12l6.86-29.29,47.56-32.18-6.62-9.79,6.81-6.37-16.35-17.5,16.8-10.43-10.55-16.99Z"/>
      <path class="cls-1" d="M1463.45,1052.68l-1.97,8.41,19.47,4.56,4.53-19.34c-8.35.38-15.73,2.52-22.03,6.37Z"/>
      <path class="cls-1" d="M1208.33,925.12l-1.97,8.41,19.47,4.56,4.53-19.34c-8.35.38-15.73,2.52-22.03,6.37Z"/>
      <path class="cls-1" d="M1615.15,835.02l1.97-8.41-19.47-4.56-4.53,19.34c8.35-.38,15.73-2.52,22.03-6.37Z"/>
      <path class="cls-1" d="M1772.28,777.34l-8.96-9.59-14.61,13.66,6.25,6.69-41.84,25.98,81.77-101.57-13.39-14.55-60.49,40.93,65.2-77.28-3.44-15.52c-1.99-.92-49.14-22.26-85.19,7.45-12.23,10.07-18.84,21.58-19.68,34.21-1.21,18.33,10.4,31.35,11.72,32.78l14.69-13.58c-.07-.08-7.18-8.09-6.44-18.05.51-6.85,4.69-13.55,12.43-19.92,16.6-13.68,37.7-12.01,51.04-8.9l-102.19,121.12,13.25,14.73,65.16-44.09-75.87,94.24-58.37,39.5,3.32-14.16c-5.19,1-10.6,1.5-16.23,1.5-1.57,0-3.12-.04-4.64-.12l-6.86,29.29-39.45,26.69-8.38-8.97,16.8-10.43-10.55-16.99-20.18,12.53-8.96-9.59-14.61,13.66,6.25,6.69-41.84,25.98,81.77-101.57-13.39-14.55-60.49,40.93,65.2-77.28-3.44-15.52c-1.99-.92-49.14-22.26-85.19,7.45-12.23,10.07-18.84,21.58-19.68,34.21-1.21,18.33,10.4,31.35,11.72,32.78l14.69-13.58c-.07-.08-7.18-8.09-6.44-18.05.51-6.85,4.69-13.55,12.43-19.92,16.6-13.68,37.7-12.01,51.04-8.9l-102.19,121.12,13.25,14.73,65.16-44.09-75.87,94.24-58.37,39.5,3.32-14.16c-5.19,1-10.6,1.5-16.23,1.5-1.57,0-3.12-.04-4.64-.12l-6.86,29.29-39.45,26.69-8.38-8.97,16.8-10.43-10.55-16.99-20.18,12.53-8.96-9.59-14.61,13.66,6.25,6.69-41.84,25.98,81.77-101.57-13.39-14.55-60.49,40.93,65.2-77.28-3.44-15.52c-1.99-.92-49.14-22.26-85.19,7.45-12.22,10.07-18.84,21.58-19.68,34.21-1.21,18.33,10.4,31.35,11.72,32.78l14.69-13.58c-.07-.08-7.18-8.09-6.44-18.05.51-6.85,4.69-13.55,12.43-19.92,16.6-13.68,37.7-12.01,51.04-8.9l-102.19,121.12,13.25,14.73,65.16-44.09-75.87,94.24-58.37,39.5,3.32-14.16c-5.19,1-10.6,1.5-16.23,1.5-1.57,0-3.12-.04-4.64-.12l-6.86,29.29-39.45,26.69-8.38-8.97,16.8-10.43-10.55-16.99-20.18,12.53-8.96-9.59-14.61,13.66,6.25,6.69-41.84,25.98,81.77-101.57-13.39-14.55-60.49,40.93,65.2-77.28-3.44-15.52c-1.99-.92-49.14-22.26-85.19,7.45-12.23,10.07-18.85,21.58-19.68,34.21-1.21,18.33,10.4,31.35,11.72,32.78l14.69-13.58c-.07-.08-7.18-8.09-6.44-18.05.51-6.85,4.69-13.55,12.43-19.92,16.6-13.68,37.7-12.01,51.04-8.9l-102.19,121.12,13.25,14.73,65.16-44.09-76.84,95.45,13.06,14.77,95.1-59.04,19.06,20.4,6.01-5.62,3.71,5.49,131.23-88.79,95.1-59.04,12.26,13.11-121.2,82.01,11.21,16.57,59.25-40.1-3.32,14.16c5.19-1,10.6-1.5,16.23-1.5,1.57,0,3.12.04,4.64.12l6.86-29.29,39.45-26.69,8.38,8.97-16.8,10.43,10.55,16.99,20.18-12.53,8.96,9.59,14.61-13.66-6.25-6.69,41.84-25.98-81.77,101.57,13.39,14.55,60.49-40.93-65.2,77.28,3.44,15.52c1.99.92,49.14,22.26,85.19-7.45,12.22-10.07,18.84-21.58,19.68-34.21,1.21-18.33-10.4-31.35-11.72-32.78l-14.69,13.58c.07.08,7.18,8.09,6.44,18.05-.51,6.85-4.69,13.55-12.43,19.92-16.6,13.68-37.7,12.01-51.04,8.9l102.19-121.12-13.25-14.73-65.16,44.09,75.87-94.24,58.37-39.5-3.32,14.16c5.19-1,10.6-1.5,16.23-1.5,1.57,0,3.12.04,4.64.12l6.86-29.29,39.45-26.69,8.38,8.97-16.8,10.43,10.55,16.99,20.18-12.53,8.96,9.59,14.61-13.66-6.25-6.69,41.84-25.98-81.77,101.57,13.39,14.55,60.49-40.93-65.2,77.28,3.44,15.52c1.99.92,49.14,22.26,85.19-7.45,12.22-10.07,18.84-21.58,19.68-34.21,1.21-18.33-10.4-31.35-11.72-32.78l-14.69,13.58c.07.08,7.18,8.09,6.44,18.05-.51,6.85-4.69,13.55-12.43,19.92-16.6,13.68-37.7,12.01-51.04,8.9l102.19-121.12-13.25-14.73-65.16,44.09,75.87-94.24,58.37-39.5-3.32,14.16c5.19-1,10.6-1.5,16.23-1.5,1.57,0,3.12.04,4.64.12l6.86-29.29,47.56-32.18-6.62-9.79,6.81-6.37-16.35-17.5,16.8-10.43-10.55-16.99-20.18,12.53ZM1404.82,1025.67l-95.1,59.04-12.26-13.11,121.21-82.01,95.1-59.04,12.26,13.11-121.2,82.01ZM1659.93,898.11l-95.1,59.04-12.26-13.11,121.21-82.01,95.1-59.04,12.26,13.11-121.2,82.01Z"/>
      <path class="cls-1" d="M1360.04,962.58l1.97-8.41-19.47-4.56-4.53,19.34c8.35-.38,15.73-2.52,22.03-6.37Z"/>
      <path class="cls-1" d="M1463.45,797.56l-1.97,8.41,19.47,4.56,4.53-19.34c-8.35.38-15.73,2.52-22.03,6.37Z"/>
      <path class="cls-1" d="M1208.33,670.01l-1.97,8.41,19.47,4.56,4.53-19.34c-8.35.38-15.73,2.52-22.03,6.37Z"/>
      <path class="cls-1" d="M1360.04,707.47l1.97-8.41-19.47-4.56-4.53,19.34c8.35-.38,15.73-2.52,22.03-6.37Z"/>
      <path class="cls-1" d="M1615.15,579.91l1.97-8.41-19.47-4.56-4.53,19.34c8.35-.38,15.73-2.52,22.03-6.37Z"/>
      <path class="cls-1" d="M1772.28,522.22l-8.96-9.59-14.61,13.66,6.25,6.69-41.84,25.98,81.77-101.57-13.39-14.55-60.49,40.93,65.2-77.28-3.44-15.52c-1.99-.92-49.14-22.26-85.19,7.45-12.23,10.07-18.84,21.58-19.68,34.21-1.21,18.33,10.4,31.35,11.72,32.78l14.69-13.58c-.07-.08-7.18-8.09-6.44-18.05.51-6.85,4.69-13.55,12.43-19.92,16.6-13.68,37.7-12.01,51.04-8.9l-102.19,121.12,13.25,14.73,65.16-44.09-75.87,94.24-58.37,39.5,3.32-14.16c-5.19,1-10.6,1.5-16.23,1.5-1.57,0-3.12-.04-4.64-.12l-6.86,29.29-39.45,26.69-8.38-8.97,16.8-10.43-10.55-16.99-20.18,12.53-8.96-9.59-14.61,13.66,6.25,6.69-41.84,25.98,81.77-101.57-13.39-14.55-60.49,40.93,65.2-77.28-3.44-15.52c-1.99-.92-49.14-22.26-85.19,7.45-12.23,10.07-18.84,21.58-19.68,34.21-1.21,18.33,10.4,31.35,11.72,32.78l14.69-13.58c-.07-.08-7.18-8.09-6.44-18.05.51-6.85,4.69-13.55,12.43-19.92,16.6-13.68,37.7-12.01,51.04-8.9l-102.19,121.12,13.25,14.73,65.16-44.09-75.87,94.24-58.37,39.5,3.32-14.16c-5.19,1-10.6,1.5-16.23,1.5-1.57,0-3.12-.04-4.64-.12l-6.86,29.29-39.45,26.69-8.38-8.97,16.8-10.43-10.55-16.99-20.18,12.53-8.96-9.59-14.61,13.66,6.25,6.69-41.84,25.98,81.77-101.57-13.39-14.55-60.49,40.93,65.2-77.28-3.44-15.52c-1.99-.92-49.14-22.26-85.19,7.45-12.22,10.07-18.84,21.58-19.68,34.21-1.21,18.33,10.4,31.35,11.72,32.78l14.69-13.58c-.07-.08-7.18-8.09-6.44-18.05.51-6.85,4.69-13.55,12.43-19.92,16.6-13.68,37.7-12.01,51.04-8.9l-102.19,121.12,13.25,14.73,65.16-44.09-75.87,94.24-58.37,39.5,3.32-14.16c-5.19,1-10.6,1.5-16.23,1.5-1.57,0-3.12-.04-4.64-.12l-6.86,29.29-39.45,26.69-8.38-8.97,16.8-10.43-10.55-16.99-20.18,12.53-8.96-9.59-14.61,13.66,6.25,6.69-41.84,25.98,81.77-101.57-13.39-14.55-60.49,40.93,65.2-77.28-3.44-15.52c-1.99-.92-49.14-22.26-85.19,7.45-12.23,10.07-18.85,21.58-19.68,34.21-1.21,18.33,10.4,31.35,11.72,32.78l14.69-13.58c-.07-.08-7.18-8.09-6.44-18.05.51-6.85,4.69-13.55,12.43-19.92,16.6-13.68,37.7-12.01,51.04-8.9l-102.19,121.12,13.25,14.73,65.16-44.09-75.87,94.24-58.37,39.5,3.32-14.16c-5.19,1-10.6,1.5-16.23,1.5-1.57,0-3.12-.04-4.64-.12l-6.86,29.29-39.45,26.69-8.38-8.97,16.8-10.43-10.55-16.99-20.18,12.53-8.96-9.59-14.61,13.66,6.25,6.69-41.84,25.98,81.77-101.57-13.39-14.55-60.49,40.93,65.2-77.28-3.44-15.52c-1.99-.92-49.14-22.26-85.19,7.45-12.23,10.07-18.84,21.58-19.68,34.21-1.21,18.33,10.4,31.35,11.72,32.78l14.69-13.58c-.07-.08-7.18-8.09-6.44-18.05.51-6.85,4.69-13.55,12.43-19.92,16.6-13.68,37.7-12.01,51.04-8.9l-102.19,121.12,13.25,14.73,65.16-44.09-75.87,94.24-58.37,39.5,3.32-14.16c-5.19,1-10.6,1.5-16.23,1.5-1.57,0-3.12-.04-4.64-.12l-6.86,29.29-39.45,26.69-8.38-8.97,16.8-10.43-10.55-16.99-20.18,12.53-8.96-9.59-14.61,13.66,6.25,6.69-41.84,25.98,81.77-101.57-13.39-14.55-60.49,40.93,65.2-77.28-3.44-15.52c-1.99-.92-49.14-22.26-85.19,7.45-12.22,10.07-18.84,21.58-19.68,34.21-1.21,18.33,10.4,31.35,11.72,32.78l14.69-13.58c-.07-.08-7.18-8.09-6.44-18.05.51-6.85,4.69-13.55,12.43-19.92,16.6-13.68,37.7-12.01,51.04-8.9l-102.19,121.12,13.25,14.73,65.16-44.09-76.84,95.45,13.06,14.77,95.1-59.04,19.06,20.4,6.01-5.62,3.71,5.49,131.23-88.79,95.1-59.04,12.26,13.11-121.21,82.01,11.21,16.57,59.25-40.1-3.32,14.16c5.19-1,10.6-1.5,16.23-1.5,1.57,0,3.12.04,4.64.12l6.86-29.29,39.45-26.69,8.38,8.97-16.8,10.43,10.55,16.99,20.18-12.53,8.96,9.59,14.61-13.66-6.25-6.69,41.84-25.98-81.77,101.57,13.39,14.55,60.49-40.93-65.2,77.28,3.44,15.52c1.99.92,49.14,22.26,85.19-7.45,12.23-10.07,18.85-21.58,19.68-34.21,1.21-18.33-10.4-31.35-11.72-32.78l-14.69,13.58c.07.08,7.18,8.09,6.44,18.05-.51,6.85-4.69,13.55-12.43,19.92-16.6,13.68-37.7,12.01-51.04,8.9l102.19-121.12-13.25-14.73-65.16,44.09,75.87-94.24,58.37-39.5-3.32,14.16c5.19-1,10.6-1.5,16.23-1.5,1.57,0,3.12.04,4.64.12l6.86-29.29,39.45-26.69,8.38,8.97-16.8,10.43,10.55,16.99,20.18-12.53,8.96,9.59,14.61-13.66-6.25-6.69,41.84-25.98-81.77,101.57,13.39,14.55,60.49-40.93-65.2,77.28,3.44,15.52c1.99.92,49.14,22.26,85.19-7.45,12.23-10.07,18.84-21.58,19.68-34.21,1.21-18.33-10.4-31.35-11.72-32.78l-14.69,13.58c.07.08,7.18,8.09,6.44,18.05-.51,6.85-4.69,13.55-12.43,19.92-16.6,13.68-37.7,12.01-51.04,8.9l102.19-121.12-13.25-14.73-65.16,44.09,75.87-94.24,58.37-39.5-3.32,14.16c5.19-1,10.6-1.5,16.23-1.5,1.57,0,3.12.04,4.64.12l6.86-29.29,39.45-26.69,8.38,8.97-16.8,10.43,10.55,16.99,20.18-12.53,8.96,9.59,14.61-13.66-6.25-6.69,41.84-25.98-81.77,101.57,13.39,14.55,60.49-40.93-65.2,77.28,3.44,15.52c1.99.92,49.14,22.26,85.19-7.45,12.22-10.07,18.84-21.58,19.68-34.21,1.21-18.33-10.4-31.35-11.72-32.78l-14.69,13.58c.07.08,7.18,8.09,6.44,18.05-.51,6.85-4.69,13.55-12.43,19.92-16.6,13.68-37.7,12.01-51.04,8.9l102.19-121.12-13.25-14.73-65.16,44.09,75.87-94.24,58.37-39.5-3.32,14.16c5.19-1,10.6-1.5,16.23-1.5,1.57,0,3.12.04,4.64.12l6.86-29.29,39.45-26.69,8.38,8.97-16.8,10.43,10.55,16.99,20.18-12.53,8.96,9.59,14.61-13.66-6.25-6.69,41.84-25.98-81.77,101.57,13.39,14.55,60.49-40.93-65.2,77.28,3.44,15.52c1.99.92,49.14,22.26,85.19-7.45,12.22-10.07,18.84-21.58,19.68-34.21,1.21-18.33-10.4-31.35-11.72-32.78l-14.69,13.58c.07.08,7.18,8.09,6.44,18.05-.51,6.85-4.69,13.55-12.43,19.92-16.6,13.68-37.7,12.01-51.04,8.9l102.19-121.12-13.25-14.73-65.16,44.09,75.87-94.24,58.37-39.5-3.32,14.16c5.19-1,10.6-1.5,16.23-1.5,1.57,0,3.12.04,4.64.12l6.86-29.29,47.56-32.18-6.62-9.79,6.81-6.37-16.35-17.5,16.8-10.43-10.55-16.99-20.18,12.53ZM894.58,1025.67l-95.1,59.04-12.26-13.11,121.21-82.01,95.1-59.04,12.26,13.11-121.21,82.01ZM1149.7,898.11l-95.1,59.04-12.26-13.11,121.21-82.01,95.1-59.04,12.26,13.11-121.2,82.01ZM1404.82,770.55l-95.1,59.04-12.26-13.11,121.21-82.01,95.1-59.04,12.26,13.11-121.2,82.01ZM1659.93,643l-95.1,59.04-12.26-13.11,121.21-82.01,95.1-59.04,12.26,13.11-121.2,82.01Z"/>
      <path class="cls-1" d="M1463.45,542.45l-1.97,8.41,19.47,4.56,4.53-19.34c-8.35.38-15.73,2.52-22.03,6.37Z"/>
      <path class="cls-1" d="M1208.33,414.89l-1.97,8.41,19.47,4.56,4.53-19.34c-8.35.38-15.73,2.52-22.03,6.37Z"/>
      <path class="cls-1" d="M1615.15,324.79l1.97-8.41-19.47-4.56-4.53,19.34c8.35-.38,15.73-2.52,22.03-6.37Z"/>
      <path class="cls-1" d="M1360.04,452.35l1.97-8.41-19.47-4.56-4.53,19.34c8.35-.38,15.73-2.52,22.03-6.37Z"/>
      <path class="cls-1" d="M1463.45,287.33l-1.97,8.41,19.47,4.56,4.53-19.34c-8.35.38-15.73,2.52-22.03,6.37Z"/>
      <path class="cls-1" d="M1208.33,159.77l-1.97,8.41,19.47,4.56,4.53-19.34c-8.35.38-15.73,2.52-22.03,6.37Z"/>
      <path class="cls-1" d="M1360.04,197.23l1.97-8.41-19.47-4.56-4.53,19.34c8.35-.38,15.73-2.52,22.03-6.37Z"/>
    </g>
  </g>
</svg>