<?xml version="1.0" encoding="UTF-8"?>
<svg id="Layer_1" xmlns="http://www.w3.org/2000/svg" version="1.1" viewBox="0 0 286.9 452.9">
  <!-- Generator: Adobe Illustrator 30.0.0, SVG Export Plug-In . SVG Version: 2.1.1 Build 123)  -->
  <defs>
    <style>
      .st0 {
        fill: #ff1739;
      }
    </style>
  </defs>
  <path class="st0" d="M156.2,264.5l2-8.4-19.5-4.6-4.5,19.3c8.4-.4,15.7-2.5,22-6.4Z"/>
  <path class="st0" d="M144.4,315l3.3-14.2c-5.2,1-10.6,1.5-16.2,1.5s-3.1,0-4.6-.1l-6.9,29.3-47.6,32.2,11.2,16.6,131.2-88.8-11.2-16.6-59.2,40.1Z"/>
  <path class="st0" d="M82.3,169.7l20.2-12.5,9,9.6,14.6-13.7-6.2-6.7,41.8-26-81.8,101.6,13.4,14.6,60.5-40.9-65.2,77.3,3.4,15.5c2,.9,49.1,22.3,85.2-7.5,12.2-10.1,18.9-21.6,19.7-34.2,1.2-18.3-10.4-31.4-11.7-32.8l-14.7,13.6c0,0,7.2,8.1,6.4,18.1-.5,6.9-4.7,13.5-12.4,19.9-16.6,13.7-37.7,12-51,8.9l102.2-121.1-13.2-14.7-65.2,44.1,76.8-95.4-13.1-14.8-95.1,59-19.1-20.4-14.6,13.7,16.3,17.5-16.8,10.4,10.6,17h0Z"/>
</svg>