<?xml version="1.0" encoding="UTF-8"?>
<svg id="Layer_1" data-name="Layer 1" xmlns="http://www.w3.org/2000/svg" viewBox="0 0 197.93 386.93">
  <defs>
    <style>
      .cls-1 {
        fill: #f72140;
      }
    </style>
  </defs>
  <path class="cls-1" d="M107.12,238.94l-2.87,12.22c-9.14,5.59-19.86,8.7-31.98,9.24l6.57-28.08,28.28,6.61Z"/>
  <path class="cls-1" d="M158.42,276.27v35.06l-53.28,36.05h-53.22l9.69-41.42c2.21.12,4.46.18,6.73.18,8.19,0,16.03-.71,23.57-2.17l-4.84,20.55,71.35-48.25Z"/>
  <path class="cls-1" d="M158.42,127.79l-116.26,137.82c19.37,4.5,49.99,6.93,74.09-12.93,11.25-9.26,17.31-18.97,18.04-28.92,1.09-14.47-9.24-26.08-9.34-26.2l21.32-19.72c1.13,1.22,7.5,8.37,12.14,19.5v47.95c-4.66,10.68-12.6,20.65-23.71,29.79-31.92,26.32-69.83,25.05-95.19,19.76v-71.13l61.2-72.53-61.2,41.4v-60.35L112.14,42l-60.72,37.73,9.06,9.69-20.97,19.6v-56.09l21.56-13.38h90.36l-74.74,92.84,81.73-55.3v50.7Z"/>
</svg>