<?xml version="1.0" encoding="UTF-8"?>
<svg id="Layer_2" data-name="Layer 2" xmlns="http://www.w3.org/2000/svg" viewBox="0 0 32 32">
  <defs>
    <style>
      .cls-1 {
        fill: #ff1739;
      }

      .cls-2 {
        fill: #f5ffee;
      }
    </style>
  </defs>
  <g id="Layer_1-2" data-name="Layer 1">
    <rect class="cls-1" width="32" height="32" rx="7.3" ry="7.3"/>
    <g>
      <path class="cls-2" d="M17.14,19.46l.18-.76-1.77-.42-.41,1.76c.76-.04,1.43-.23,2-.58h0Z"/>
      <path class="cls-2" d="M16.05,24.06l.3-1.29c-.47.09-.96.14-1.47.14s-.28,0-.42,0l-.63,2.67-4.33,2.93,1.02,1.51,11.94-8.08-1.02-1.51-5.39,3.65h0Z"/>
      <path class="cls-2" d="M10.41,10.84l1.84-1.14.82.87,1.33-1.25-.56-.61,3.8-2.37-7.44,9.25,1.22,1.33,5.51-3.72-5.93,7.03.31,1.41c.18.08,4.47,2.03,7.75-.68,1.11-.92,1.72-1.97,1.79-3.11.11-1.67-.95-2.86-1.06-2.98l-1.34,1.24s.66.74.58,1.65c-.05.63-.43,1.23-1.13,1.81-1.51,1.25-3.43,1.09-4.64.81l9.3-11.02-1.2-1.34-5.93,4.01,6.99-8.68-1.19-1.35-8.65,5.37-1.74-1.86-1.33,1.25,1.48,1.59-1.53.95.96,1.55h0Z"/>
    </g>
  </g>
</svg>