<?xml version="1.0" encoding="UTF-8"?>
<svg id="Layer_1" data-name="Layer 1" xmlns="http://www.w3.org/2000/svg" viewBox="0 0 1080 1080">
  <defs>
    <style>
      .cls-1 {
        fill: #ff1739;
      }

      .cls-2 {
        fill: #f5ffee;
      }
    </style>
  </defs>
  <rect class="cls-1" width="1080" height="1080" rx="246.44" ry="246.44"/>
  <g>
    <path class="cls-2" d="M568.61,699.53l-10.05,42.89c-32.06,19.62-69.67,30.51-112.21,32.41l23.06-98.5,99.2,23.2Z"/>
    <path class="cls-2" d="M748.58,830.52v123.01l-186.94,126.47h-186.73l34.01-145.31c7.76.42,15.65.62,23.62.62,28.74,0,56.24-2.49,82.7-7.62l-16.97,72.1,250.31-169.28Z"/>
    <path class="cls-2" d="M748.58,309.6l-407.88,483.52c67.95,15.79,175.37,24.31,259.94-45.37,39.48-32.48,60.74-66.56,63.3-101.47,3.81-50.77-32.41-91.49-32.76-91.91l74.8-69.19c3.95,4.29,26.32,29.37,42.6,68.43v168.24c-16.35,37.47-44.19,72.45-83.18,104.52-112,92.33-244.98,87.89-333.98,69.33v-249.55l214.71-254.47-214.71,145.24v-211.73L586.23,8.59l-213.05,132.36,31.79,34.01-73.56,68.78V46.96L407.05,0h317.01l-262.22,325.74,286.74-194v177.86Z"/>
  </g>
</svg>