<?xml version="1.0" encoding="UTF-8"?>
<svg id="Layer_1" data-name="Layer 1" xmlns="http://www.w3.org/2000/svg" viewBox="0 0 500 500">
  <defs>
    <style>
      .cls-1 {
        fill: #f5ffee;
      }
    </style>
  </defs>
  <path class="cls-1" d="M358.81,391.2H25.91c-9.26,0-17.81-4.94-22.44-12.96-4.63-8.02-4.63-17.89,0-25.91L136.59,121.76c4.63-8.02,13.18-12.96,22.44-12.96s17.81,4.94,22.44,12.96l88.75,153.72c7.16,12.39,2.91,28.24-9.48,35.4-12.4,7.15-28.24,2.91-35.4-9.48l-66.31-114.85-88.24,152.84h288.02c49.28,0,89.37-40.09,89.37-89.38s-40.09-89.37-89.37-89.37h-61.61l66.31,114.85c7.16,12.39,2.91,28.24-9.48,35.4-12.39,7.15-28.24,2.91-35.4-9.48l-88.75-153.71c-4.63-8.02-4.63-17.89,0-25.91,4.63-8.02,13.18-12.96,22.44-12.96h106.49c77.85,0,141.19,63.34,141.19,141.19s-63.34,141.2-141.19,141.2Z"/>
</svg>