<?xml version="1.0" encoding="UTF-8"?>
<svg id="Layer_1" data-name="Layer 1" xmlns="http://www.w3.org/2000/svg" viewBox="0 0 500 500">
  <defs>
    <style>
      .cls-1 {
        fill: #f5ffee;
      }
    </style>
  </defs>
  <path class="cls-1" d="M226.82,166.94c-17.19,6.12-33.2,13.11-47.62,20.77l-18.61-44.33-35.22,81.79c-6.59,5.64-12.71,11.11-18.47,16.53-10.73,10.08-19.63,19.47-27.14,28.29L170.92,56.7h9.76l46.13,110.24Z"/>
  <path class="cls-1" d="M500,340.53c0,27.97-10.86,52.12-32.58,72.37-21.72,20.27-49.67,30.4-83.84,30.4-2.16,0-4.29-.03-6.39-.1v.1h-149.11v-10.3c15.04-.74,25.23-3.25,30.51-7.54,5.31-4.25,7.93-9.48,7.93-15.58,0-8.19-3.71-21.1-11.13-38.76l-19.38-46.08c3.66-.64,7.28-1.21,10.78-1.69l24.17-3.3-8.65-7.84c5.78-2.26,13.2-5.36,21.43-9.23l18.72,44.74,2.75,6.57c24.17,56.4,53.02,67.77,72.65,67.77,22.72,0,40.68-6,53.86-18.01,13.18-12,19.77-26.16,19.77-42.52,0-9.1-2.49-18.29-7.48-27.56-5.03-9.27-12.79-17.9-23.32-25.88-7.09-5.48-26.47-17.06-58.1-34.79-6.01-3.36-11.69-6.6-17.04-9.71,13.66-5.23,29.52-17.54,48.35-37.52.69-.73,1.38-1.47,2.07-2.22,31.23,16.94,52.79,30.06,64.65,39.37,12.65,9.91,22.36,21.58,29.17,35.04,6.81,13.45,10.22,27.53,10.22,42.27Z"/>
  <path class="cls-1" d="M475.46,56.7v127.87h-10.08c-2-14.98-4.96-28.1-8.89-39.35-1.32-3.8-2.76-7.39-4.31-10.77-1.38-3.01-2.84-5.85-4.4-8.51-8.43-14.55-20.49-26.08-36.13-34.62-15.63-8.54-31.8-12.81-48.52-12.81-18.9,0-34.54,5.78-46.91,17.31-8.76,8.21-14.43,17.22-16.97,27.05-1.06,3.99-1.56,8.1-1.56,12.34s.54,8.23,1.61,12.13c-15.58,3.07-30.65,6.69-44.86,10.76-.06-1.35-.09-2.7-.09-4.07,0-26.55,10.16-49.39,30.52-68.57,18.59-17.53,41.82-27.03,69.66-28.53,2.65-.14,5.33-.23,8.04-.23,19.66,0,40.46,4.8,62.46,14.44,10.16,4.55,17.34,6.81,21.53,6.81,4.74,0,8.6-1.39,11.59-4.21,3.01-2.82,5.42-8.49,7.23-17.03h10.08Z"/>
  <path class="cls-1" d="M442.64,145.54s-27.06,40.89-57.04,72.72c-15.79,16.78-32.41,31.04-46.3,35.46-6.08-1.15-12.62-3.1-19.05-5.41-19.65-7.02-38.16-17.2-38.64-17.47,4.9,4.07,40.33,27.94,49.19,29.14-15.28,13.68-34.97,24.69-51.47,32.48-18.4,8.71-32.87,13.43-32.87,13.43-3-1.6-17.91-14.75-27.53-23.6-3.74-3.44-6.68-6.24-7.81-7.46.14,2.47,4.86,8.21,10.75,14.49,10.01,10.63,23.37,22.76,23.37,22.76-4.64.62-9.2,1.37-13.66,2.19-37,6.79-67.1,18.91-67.1,18.91-15.46-4.81-29.28-17.13-29.28-17.13,6.15,11.33,20.83,21.86,20.83,21.86-36.77-4.65-80.29,14.01-82.54,15.33l-48.62,73.73L0,443.3s15.21-31.87,28.82-60.35c1,.53,2.15.83,3.37.83,4.05,0,7.31-3.28,7.31-7.31,0-3-1.8-5.57-4.37-6.72,8.21-17.22,14.63-30.63,14.63-30.63,1.57-2.01,83.88-139.77,275.88-176.97-160.5,23.99-249.3,133.43-270.52,165.86,12.32-24.85,28.11-48.42,59.58-78.01,9.32-8.78,20.04-18.08,32.43-28.1,11.26-8.88,23.55-16.73,36.5-23.65,15.12-8.13,31.18-14.98,47.59-20.8,8.07-2.87,16.23-5.48,24.41-7.84,16.16-4.71,32.4-8.5,48.17-11.55,74.42-14.42,138.84-12.51,138.84-12.51Z"/>
</svg>