<?xml version="1.0" encoding="UTF-8"?>
<svg id="Layer_1" data-name="Layer 1" xmlns="http://www.w3.org/2000/svg" viewBox="0 0 500 500">
  <defs>
    <style>
      .cls-1 {
        fill: #f5ffee;
      }
    </style>
  </defs>
  <g id="with_bg" data-name="with bg">
    <g>
      <path class="cls-1" d="M142.62,459.93c-19.24,0-37.93-3.78-55.52-11.22-16.98-7.19-32.25-17.45-45.34-30.54-13.09-13.09-23.36-28.33-30.54-45.34C3.78,355.21,0,336.56,0,317.31V81.1c-.03-19.5,15.75-35.27,35.24-35.27h0c19.47,0,35.27,15.78,35.27,35.27v234.73c0,36.78,29.9,70.63,66.57,73.39,42.24,3.16,77.65-30.32,77.65-71.91,0-31.35-20.14-58.12-48.17-68.02-14.26-5.03-23.94-18.26-23.94-33.4h0c0-24.36,24.08-41.31,47.05-33.28,2.85,1.01,5.68,2.1,8.48,3.27,16.98,7.19,32.25,17.45,45.34,30.54,13.09,13.09,23.36,28.33,30.54,45.34,7.44,17.62,11.22,36.28,11.22,55.52s-3.78,37.93-11.22,55.52c-7.19,16.98-17.45,32.25-30.54,45.34-13.09,13.09-28.33,23.36-45.34,30.54-17.62,7.44-36.31,11.22-55.52,11.22v.03Z"/>
      <path class="cls-1" d="M357.35,459.93c-19.24,0-37.93-3.78-55.52-11.22-16.98-7.19-32.25-17.45-45.34-30.54-13.09-13.09-23.36-28.33-30.54-45.34-7.44-17.62-11.22-36.31-11.22-55.52s3.78-37.93,11.22-55.52c7.19-16.98,17.45-32.25,30.54-45.34s28.33-23.36,45.34-30.54c3.02-1.29,6.1-2.46,9.17-3.52,22.68-7.8,46.35,8.78,46.35,32.78v1.65c0,14.77-9.65,27.52-23.61,32.36-30.63,10.63-51.94,41.4-48.05,76.39,3.69,33.09,30.32,59.72,63.41,63.41,34.99,3.92,65.76-17.4,76.39-48.05,4.84-13.96,17.59-23.61,32.36-23.61h1.65c24,0,40.59,23.66,32.78,46.35-1.06,3.08-2.24,6.15-3.52,9.17-7.19,16.98-17.45,32.25-30.54,45.34s-28.33,23.36-45.34,30.54c-17.62,7.44-36.31,11.22-55.52,11.22Z"/>
      <path class="cls-1" d="M464.81,174.66h0c19.43,0,35.19,15.75,35.19,35.19v.17c0,19.43-15.75,35.19-35.19,35.19h0c-19.43,0-35.19-15.75-35.19-35.19v-.17c0-19.43,15.75-35.19,35.19-35.19Z"/>
    </g>
  </g>
</svg>