<?xml version="1.0" encoding="UTF-8"?>
<svg id="Layer_2" data-name="Layer 2" xmlns="http://www.w3.org/2000/svg" viewBox="0 0 178.77 148.05">
  <defs>
    <style>
      .cls-1 {
        fill: #f4f4f4;
      }

      .cls-2 {
        fill: #ffec00;
      }
    </style>
  </defs>
  <g id="with_bg" data-name="with bg">
    <g>
      <path class="cls-1" d="M51,148.05c-6.88,0-13.56-1.35-19.85-4.01-6.07-2.57-11.53-6.24-16.21-10.92-4.68-4.68-8.35-10.13-10.92-16.21-2.66-6.3-4.01-12.97-4.01-19.85V12.61C0,5.64,5.64,0,12.61,0h0c6.96,0,12.61,5.64,12.61,12.61v83.92c0,13.15,10.69,25.25,23.8,26.24,15.1,1.13,27.76-10.84,27.76-25.71,0-11.21-7.2-20.78-17.22-24.32-5.1-1.8-8.56-6.53-8.56-11.94h0c0-8.71,8.61-14.77,16.82-11.9,1.02.36,2.03.75,3.03,1.17,6.07,2.57,11.53,6.24,16.21,10.92,4.68,4.68,8.35,10.13,10.92,16.21,2.66,6.3,4.01,12.97,4.01,19.85s-1.35,13.56-4.01,19.85c-2.57,6.07-6.24,11.53-10.92,16.21-4.68,4.68-10.13,8.35-16.21,10.92-6.3,2.66-12.98,4.01-19.85,4.01Z"/>
      <path class="cls-1" d="M127.77,148.05c-6.88,0-13.56-1.35-19.85-4.01-6.07-2.57-11.53-6.24-16.21-10.92-4.68-4.68-8.35-10.13-10.92-16.21-2.66-6.3-4.01-12.98-4.01-19.85s1.35-13.56,4.01-19.85c2.57-6.07,6.24-11.53,10.92-16.21,4.68-4.68,10.13-8.35,16.21-10.92,1.08-.46,2.18-.88,3.28-1.26,8.11-2.79,16.57,3.14,16.57,11.72v.59c0,5.28-3.45,9.84-8.44,11.57-10.95,3.8-18.57,14.8-17.18,27.31,1.32,11.83,10.84,21.35,22.67,22.67,12.51,1.4,23.51-6.22,27.31-17.18,1.73-4.99,6.29-8.44,11.57-8.44h.59c8.58,0,14.51,8.46,11.72,16.57-.38,1.1-.8,2.2-1.26,3.28-2.57,6.07-6.24,11.53-10.92,16.21-4.68,4.68-10.13,8.35-16.21,10.92-6.3,2.66-12.98,4.01-19.85,4.01Z"/>
      <rect class="cls-2" x="153.61" y="46.06" width="25.16" height="25.22" rx="12.58" ry="12.58"/>
    </g>
  </g>
</svg>