<?xml version="1.0" encoding="UTF-8"?>
<svg id="Layer_1" data-name="Layer 1" xmlns="http://www.w3.org/2000/svg" viewBox="0 0 500 500">
  <defs>
    <style>
      .cls-1 {
        fill: #f5ffee;
      }
    </style>
  </defs>
  <path class="cls-1" d="M494.07,366.52c-69.87-69.87-130.49-75.46-180.56-71.71-8.79.66-17.11,1.59-25.16,2.49-36.21,4.06-55.91,5.37-73.26-11.98l-.38-.38c-4.5-4.5-7.85-9.27-10.19-14.68h115.54c5.52,0,10.8-2.25,14.62-6.23,3.82-3.98,5.85-9.35,5.63-14.86-1.06-25.91-9.43-45.85-26.37-62.79l-.34-.34c-31.96-31.96-69.82-27.72-106.44-23.61-.36.04-.72.08-1.09.12-.38-45.07-13.49-97.53-72.58-156.62-7.91-7.91-20.74-7.91-28.65,0l-49.45,49.45c-7.91,7.91-7.91,20.74,0,28.65,7.91,7.91,20.74,7.91,28.65,0l34.66-34.66c38.3,43.79,46.91,81.63,46.83,116.11-38.13.05-80.78-10.51-130.93-60.66-7.91-7.91-20.74-7.91-28.65,0-7.91,7.91-7.91,20.74,0,28.65,70.38,70.38,132.1,75.34,180.83,71.68.09,0,.19-.01.28-.02,8.62-.65,16.84-1.57,24.62-2.44,36.21-4.06,55.91-5.37,73.31,12.03l.34.34c4.5,4.5,7.84,9.26,10.18,14.67h-115.54c-5.52,0-10.8,2.25-14.62,6.23-3.82,3.98-5.85,9.35-5.63,14.86,1.06,25.91,9.43,45.86,26.32,62.75l.38.38c31.96,31.96,69.83,27.72,106.44,23.61.36-.04.73-.08,1.09-.12.38,45.07,13.49,97.53,72.58,156.62,3.96,3.96,9.14,5.93,14.33,5.93s10.37-1.98,14.33-5.93c7.91-7.91,7.91-20.74,0-28.65-12.78-12.77-22.98-25.05-31.1-36.88l32.23-32.23c7.91-7.91,7.91-20.74,0-28.65-7.91-7.91-20.74-7.91-28.65,0l-23.4,23.4c-7.51-19.99-9.8-38.73-9.75-56.56,38.31-.1,80.76,10.52,130.93,60.69,3.96,3.96,9.14,5.93,14.33,5.93s10.37-1.98,14.33-5.93c7.91-7.91,7.91-20.74,0-28.65Z"/>
</svg>