<?xml version="1.0" encoding="UTF-8"?>
<svg id="Layer_1" data-name="Layer 1" xmlns="http://www.w3.org/2000/svg" viewBox="0 0 500 500">
  <defs>
    <style>
      .cls-1 {
        fill: #f5ffee;
      }
    </style>
  </defs>
  <path class="cls-1" d="M183.61,131.77c-5.94,19.01-10.1,31.48-17.23,54.05-4.16,11.29,1.78,16.03,13.07,16.03,27.32-1.78,52.27-1.19,71.86,4.75,43.95,13.07,40.98,66.52,16.04,75.43-8.32,3.56-11.29.59-17.82-5.94-10.69-10.1-30.29-17.82-78.99-13.66-18.41,1.78-27.32,1.78-35.04,26.14-10.1,29.1-17.82,63.55-23.76,93.84-4.16,26.73,0,38.01,14.25,42.77,5.35,1.78,8.32,1.78,8.91,8.31,4.75,38.01-77.81,62.36-100.38,16.63-8.91-17.81-8.31-40.98-2.38-68.89,14.85-74.84,51.08-179.37,69.49-244.11,4.16-16.63,2.38-24.35-23.16-23.16-23.76.59-36.23-26.73-32.07-54.05,4.75-26.73,14.85-29.1,36.82-22.57,59.99,18.41,159.77-30.29,243.52-4.75,40.98,13.07,43.36,70.68,23.76,88.5-11.88,10.1-20.79,8.31-29.7-1.78-14.85-16.03-22.57-33.26-106.32-17.22-15.44,3.56-22.57,2.97-30.88,29.7Z"/>
  <path class="cls-1" d="M443.42,134.84c6.18-2.73,11.88-7.73,16.7-12.48,6.68-6.59,16-17.84,10.43-27.61-2.42-4.25-6.16-6.49-10.9-7.32-6.23-1.1-10.85,1.42-16.55,2.95-8.26,2.21-14.45-.69-21.53-4.64-6.14-3.42-12.76-9.1-20.09-5.58-5.31,2.55-8.58,9.38-8.87,15.06-.27,5.23,2.1,9.99,4.41,14.57,4.7,9.31,9.57,18.62,18.71,24.17,8.55,5.19,18.76,4.84,27.7.88Z"/>
</svg>