<?xml version="1.0" encoding="UTF-8"?>
<svg id="Layer_1" data-name="Layer 1" xmlns="http://www.w3.org/2000/svg" viewBox="0 0 500 500">
  <defs>
    <style>
      .cls-1 {
        fill: #f5ffee;
      }
    </style>
  </defs>
  <path class="cls-1" d="M271.98,110.87c-10.75-27.79-27.28-59.99-54.46-74.2C149.48,2.27,90.11,176.46,77.07,224.4c-14.82,55.13-44.47,157.82-30.19,211.19,2.32,7.15,5.06,12.52,9.61,15.84,9.65,6.62,21.71,4.7,33.46,2.78,80.4-17.85,202.25-109.81,263.43-166.81,31.92-29.97,127.06-121.57,101.47-167.08-23.3-32.19-66.02-19.62-96.61-4.27-43.29,21.73-81.5,53.17-117.64,85.34-12.17,10.95-24.03,22.28-35.76,33.76-11.7,11.53-23.31,23.36-34.3,35.36-7.05,7.36-18.27-2.5-11.8-10.45,53.56-61.67,200.33-218.58,288.65-177.29,15.85,7.05,30.86,20.77,35.55,38.59,21.32,80.23-128.84,206.52-187.31,251.42-48.11,36.22-221.51,162.95-268.06,88.69-30.89-50.47,2.98-165.13,18.25-220.21,18.82-64.78,42.39-128.81,83.91-183.17,16.75-20.71,38.7-42.31,67.49-42.48,28.63.37,50.38,22.69,63.72,45.68,8.73,14.84,15.12,30.38,19.93,46.92.69,2.46-.74,5.03-3.21,5.72-2.42.69-4.93-.7-5.68-3.06h0Z"/>
  <path class="cls-1" d="M271.61,418.27c34-15.79,69.16-30.43,102.03-47.92,12.03-6.81,24.6-13.23,33.54-23.2,5.52-8.56,8.08-18.04,8.79-28.74.57-8.63-.53-17.85-1.86-26.54-.35-2.33,1.26-4.49,3.59-4.84,1.37-.2,2.71.29,3.63,1.19,3.04,3.02,5.29,5.99,7.41,9.52,11.9,19.28,11.66,45.95-2.05,64.64-4.47,5.6-10.55,10.55-15.92,14.3-33.17,21.65-70.44,33.98-107.99,44.59-9.28,2.52-18.59,4.77-28.1,6.64-2.76.54-5.43-1.26-5.98-4.01-.47-2.37.8-4.68,2.91-5.63h0Z"/>
</svg>