<?xml version="1.0" encoding="UTF-8"?>
<svg id="Layer_1" data-name="Layer 1" xmlns="http://www.w3.org/2000/svg" viewBox="0 0 500 500">
  <defs>
    <style>
      .cls-1 {
        fill: #f5ffee;
      }
    </style>
  </defs>
  <path class="cls-1" d="M273.55,414.41c-56.96,0-90.72-10.53-103.21-32.19-8.38-14.54-6.55-32.42,5.44-53.14,14.08-24.32,24.64-56.45,17.92-68.1-.79-1.37-2.9-5.03-12.74-5.03-34.32,0-39.89,44.54-40.11,46.43-.61,5.27-4.96,9.32-10.25,9.56-5.28.25-9.98-3.4-11.06-8.59-3.62-17.47-4.77-33.27-4.22-47.45-51.82,22.38-100.6,38.44-101.15,38.62-5.67,1.85-11.77-1.23-13.63-6.9-1.86-5.67,1.23-11.77,6.9-13.63.57-.19,55.92-18.41,110.77-42.96,4.02-20.32,11.5-36.19,18.89-47.83,16.31-25.64,40.99-44.72,66.03-51.01,21.25-5.35,37.8.73,42.18,15.47,8.6,28.97-25.59,60.22-107.56,98.21-.38,3.28-.65,6.68-.81,10.2,9.7-12.32,23.92-21.72,44.01-21.72,18.45,0,27.29,8.61,31.46,15.84,16.15,28.01-12.11,79.65-17.94,89.72-7.84,13.55-9.67,24.15-5.42,31.52,4.6,7.98,21.7,21.38,84.5,21.38,5.97,0,10.8,4.84,10.8,10.8s-4.84,10.8-10.8,10.8ZM217.63,151.87c-2.44,0-5.51.34-9.23,1.28-15.3,3.85-37.27,16.81-53.07,41.65-4.13,6.49-8.28,14.56-11.6,24.29,83.03-40.75,82.03-61.35,80.87-65.28-.24-.81-2.56-1.94-6.97-1.94Z"/>
  <path class="cls-1" d="M370.45,346.22c-1.03,0-2.08-.15-3.12-.46-5.71-1.72-8.95-7.75-7.23-13.46,2.51-8.34-3.64-13.68-23.4-25.49-18.57-11.1-44-26.29-39.8-56.14,3.5-24.84,17.68-46.13,36.46-64.39-16.57-19.19-39.23-32.21-64.96-35.37-5.92-.73-10.13-6.12-9.4-12.04.73-5.92,6.11-10.13,12.04-9.4,31.15,3.83,58.57,19.51,78.54,42.57,13.2-10.57,27.58-19.98,41.58-28.37-10.42-7.06-19.21-16.18-21.7-26.75-2.28-9.69,1.08-19.04,9.44-26.32,6.74-5.86,16.9-6.6,27.87-2.03,12.74,5.31,26.06,17.83,27.1,33.81.29,4.46-.34,9.86-3.19,15.54,19.57,5.49,58.16,20.8,67.08,38.16,3.21,6.25,2.37,11.5,1.1,14.8-6.86,17.84-31.18,15.51-59.34,12.81-6.68-.64-13.59-1.3-20.45-1.73-14.77-.91-30.31,36.99-35.83,64.73-1.09,5.45-6.15,9.19-11.65,8.64-5.53-.55-9.74-5.19-9.74-10.75,0-22.03-5.75-42.72-15.77-60.28-14.42,14.66-25.22,31.21-27.78,49.4-2.05,14.59,9.77,22.8,29.49,34.58,18.18,10.86,40.8,24.38,33.01,50.26-1.41,4.67-5.7,7.69-10.34,7.69ZM362.43,189.54c5.58,9.03,10.17,18.81,13.62,29.15,11.97-26.52,26.89-39.41,44.38-38.31,7.22.45,14.31,1.13,21.16,1.79,11.45,1.1,27.91,2.67,34.96,1.19-7.41-7.23-31.8-19.5-53.66-25.18-2.76-.72-5.81-1.68-9.01-2.88-.93.6-1.91,1.19-2.92,1.78-15.31,8.86-32.84,19.75-48.53,32.47ZM392.72,107.21c-2.75,2.53-2.43,3.91-2.23,4.75,1.26,5.36,9.5,12.47,19.78,18.04,3.31-4.7,1.81-8.17,1.17-9.66-3.64-8.48-15.06-13.79-18.73-13.13Z"/>
</svg>