<?xml version="1.0" encoding="UTF-8"?>
<svg id="Layer_1" data-name="Layer 1" xmlns="http://www.w3.org/2000/svg" viewBox="0 0 500 500">
  <defs>
    <style>
      .cls-1 {
        fill: #f5ffee;
      }
    </style>
  </defs>
  <path class="cls-1" d="M371.15,34.76v29.68c8.18,0,15.58,3.31,21.01,8.67,5.36,5.36,8.67,12.83,8.67,21.01v163.56h-242.31V94.12c0-16.43,13.25-29.68,29.68-29.68v-29.68H25v29.68c8.18,0,15.58,3.31,21.01,8.67,5.36,5.36,8.67,12.83,8.67,21.01v311.68c0,16.36-13.32,29.68-29.68,29.68v29.68h163.21v-29.68c-8.25,0-15.65-3.31-21.01-8.74-5.36-5.36-8.67-12.76-8.67-20.94v-103.49h242.31l2.04-6.98,35.46-117.73v-.07l6.98-23.26v-60.14c0-16.43,13.25-29.68,29.68-29.68v-29.68h-103.85ZM99.17,435.48V64.44h14.88v371.04h-14.88Z"/>
  <polygon class="cls-1" points="410.21 465.24 465.98 465.17 474.93 465.17 474.93 218.56 400.83 465.24 410.21 465.24"/>
</svg>