<?xml version="1.0" encoding="UTF-8"?>
<svg id="Layer_1" data-name="Layer 1" xmlns="http://www.w3.org/2000/svg" viewBox="0 0 500 500">
  <defs>
    <style>
      .cls-1 {
        fill: #f5ffee;
      }
    </style>
  </defs>
  <path class="cls-1" d="M207.2,345.53c-13,3.48-25.56,8.56-37.35,15.11v-41.21c14.28,6.05,26.96,15.01,37.35,26.1Z"/>
  <path class="cls-1" d="M215.77,293.71v41.81c-12.74-13.29-28.39-23.79-45.92-30.37v-42.64c4.23,1.13,8.4,2.43,12.51,3.9,10.73,3.86,21.03,8.81,30.72,14.82,1.73,3.81,2.69,8.04,2.69,12.48Z"/>
  <path class="cls-1" d="M330.15,341.98v18.67c-11.96-6.63-24.73-11.77-37.92-15.26v-51.68c0-5.5-.43-10.93-1.25-16.29,16.57,18.95,29.91,40.76,39.17,64.56Z"/>
  <path class="cls-1" d="M330.15,155.54v68.66c-16.57-15.62-29.57-34.35-38.33-55.03-4.16-9.72-7.36-19.89-9.51-30.37-2.34-11.01-3.53-22.35-3.53-33.89,0-1.27.01-2.55.05-3.82l42.67-19.11c-1.42,7.52-2.13,15.19-2.13,22.93,0,17.79,3.77,34.98,10.78,50.63Z"/>
  <path class="cls-1" d="M269.89,144.51l-37.53,17.25c-3.23-11.97-5.45-24.31-6.6-36.89l39.71-17.79c.15,12.77,1.66,25.31,4.42,37.43Z"/>
  <path class="cls-1" d="M330.15,242.04v49.59c-16.7-10.07-31.79-22.22-44.98-36.02-4.54-11.93-11.21-22.99-19.68-32.63,5.27-4.82,9.92-10.38,13.8-16.52,3.27-5.12,5.91-10.53,7.96-16.18,10.81,19.74,25.34,37.34,42.9,51.76Z"/>
  <path class="cls-1" d="M274.14,162.35c0,12.47-3.6,24.38-10.02,34.5-6.37,10.04-15.5,18.32-26.63,23.63-.1.05-.18.1-.28.16l-.67.31-51.32,24.22v-.65c0-25.18,14.67-48.03,37.55-58.54l51.37-23.63Z"/>
  <path class="cls-1" d="M380.74,0v369.27c0,34.32-13.22,66.77-37.19,91.33-23.95,24.51-55.97,38.51-90.2,39.37-1.09.03-2.2.03-3.34.03s-2.26,0-3.38-.03c-34.2-.86-66.24-14.86-90.19-39.37-23.98-24.56-37.19-57.01-37.19-91.33V117.17s0-.01.01-.01l40.58-18.19v270.3c0,3.09.16,6.14.48,9.16,21.16-15.01,46.24-24.86,73.41-27.68v-57.04c0-20.86-13.12-38.62-31.55-45.5l38.54-18.19.81-.38s.41-.2.53-.27c1.02-.49,2.03-1,3.02-1.55,17.91,16.31,29.16,39.79,29.16,65.89v58.08c24.1,3.79,46.35,13.11,65.43,26.64.31-3.02.48-6.07.48-9.16V62.66l-139.72,62.59v-44.47L380.74,0Z"/>
</svg>