<?xml version="1.0" encoding="UTF-8"?>
<svg id="Layer_1" data-name="Layer 1" xmlns="http://www.w3.org/2000/svg" viewBox="0 0 500 500">
  <defs>
    <style>
      .cls-1 {
        fill: #f5ffee;
      }
    </style>
  </defs>
  <g>
    <path class="cls-1" d="M177.29,213.3c.92-.03,1.85-.24,2.74-.63,3.71-1.65,5.38-5.99,3.73-9.7-3.36-7.57-3.25-14.3.33-18.48,2.16-2.53,5.32-3.6,8.23-2.82,3.23.87,5.86,3.86,7.56,8.42.36,2.11.93,4.24,1.72,6.36.01.04.03.07.05.1.05.13.12.25.17.37.13.29.27.57.44.84.08.13.16.25.25.37.18.25.37.49.58.72.09.1.18.2.27.29.25.25.52.47.8.68.07.05.13.11.2.16.36.24.74.46,1.13.63.1.04.2.07.3.11.3.12.61.22.92.3.15.04.3.07.46.09.29.05.58.09.88.11.15,0,.29.02.44.02.08,0,.16.01.24.01.31-.01.62-.06.94-.11.05,0,.09,0,.14-.01,0,0,.02,0,.03,0,.41-.08.81-.18,1.21-.33.03-.01.06-.03.09-.04.27-.1.51-.24.76-.37.19-.1.38-.18.56-.29.21-.13.39-.3.59-.45.18-.14.38-.28.54-.44.16-.15.29-.33.44-.5.16-.19.34-.37.48-.57.13-.19.23-.39.34-.59.12-.21.25-.41.35-.62.1-.22.16-.45.24-.68.07-.22.16-.43.22-.66.05-.22.06-.44.1-.67.04-.25.08-.5.09-.76,0-.2-.02-.4-.03-.61-.01-.29-.02-.57-.07-.86,0-.03,0-.06,0-.1-.37-2.03-.86-3.94-1.45-5.77-.52-4.35.62-8.38,3.31-11.28,2.55-2.75,6.01-3.92,9.04-3.05,4.65,1.34,8.3,7.22,10,16.13.76,3.99,4.62,6.6,8.59,5.84,3.99-.76,6.6-4.61,5.84-8.59-3.8-19.93-14.4-25.79-20.38-27.51-8.38-2.41-17.53.34-23.87,7.19-1.47,1.58-2.71,3.3-3.74,5.12-2.1-1.43-4.41-2.5-6.9-3.18-8.44-2.27-17.34.57-23.23,7.45-7.3,8.53-8.27,21.24-2.59,34.01,1.25,2.82,4.06,4.46,6.96,4.36Z"/>
    <path class="cls-1" d="M278.44,190.54c.13,0,.26,0,.38-.02,12.74-.67,25.93-13.33,25.95-33.35,0-4.06-3.28-7.35-7.34-7.36-4.02-.03-7.35,3.28-7.36,7.34-.01,11.79-6.99,18.43-12.03,18.69-.04,0-.08,0-.12,0-5.28.17-9.43-6.7-10.59-17.58-.43-4.03-3.99-6.96-8.09-6.53-4.04.43-6.96,4.05-6.53,8.09,2.48,23.25,15.3,31.05,25.71,30.71Z"/>
    <path class="cls-1" d="M432.49,434.56c.54.1,1.09.14,1.62.12,3.36-.13,6.3-2.57,6.93-6.02,3.52-19.12.11-92.74-41.6-148.28-27.65-36.82-66.02-57.95-114.04-62.79-131.84-13.32-184.14,100-200.51,149.33-.32.97-.56,1.69-.72,2.12-1.55,3.24-.53,7.21,2.54,9.27,3.37,2.26,7.94,1.36,10.2-2.01.69-1.04.96-1.83,1.93-4.76,15.25-45.97,63.83-151.56,185.09-139.34,43.77,4.42,78.68,23.59,103.76,57,39.14,52.11,41.67,121.74,38.9,136.8-.73,3.99,1.9,7.82,5.9,8.55Z"/>
    <path class="cls-1" d="M314.8,195.38c4.03.44,7.66-2.47,8.1-6.51.82-7.51,4.52-13.04,9.89-14.8,3.43-1.12,6.82-.43,8.85,1.79,2.92,3.19,2.99,9.35.34,16.78-.46,1.06-.89,2.14-1.26,3.27-.04.13-.05.26-.09.39-.07.25-.13.51-.17.76-.04.23-.06.45-.07.68-.02.25-.02.5-.01.75,0,.23.03.46.06.68.03.24.07.48.13.72.05.22.12.44.19.65.08.23.16.45.26.68.09.21.2.4.31.6.12.21.25.42.39.62.13.19.27.36.42.54.16.18.32.36.5.53.17.16.35.31.54.46.19.15.38.29.59.42.21.13.43.25.66.36.13.06.24.15.37.2.1.04.2.05.29.09.11.04.2.1.32.14.17.06.35.07.53.12.22.06.44.11.66.15.31.05.61.06.91.07.14,0,.28.04.42.03.07,0,.14-.02.21-.02.14,0,.27-.03.41-.04.31-.04.61-.09.9-.16.12-.03.24-.05.36-.09.39-.12.78-.27,1.15-.45.07-.04.14-.08.21-.12.3-.16.6-.35.88-.55.1-.07.2-.15.29-.23.27-.22.52-.46.76-.72.06-.06.12-.11.17-.18.28-.32.52-.67.74-1.05.06-.1.1-.2.16-.3.09-.18.2-.35.28-.54.44-1.03.81-2.02,1.18-3,2.25-4.86,6-8.11,10.37-8.85,3.4-.57,6.5.5,8.31,2.87,3.05,4,2.52,11.21-1.46,19.77-1.71,3.68-.11,8.05,3.57,9.76,1.08.5,2.22.72,3.33.68,2.68-.09,5.22-1.65,6.43-4.25,8.7-18.73,3.62-29.89-.18-34.88-5.1-6.69-13.7-9.93-22.44-8.45-1.99.34-3.91.89-5.74,1.65-1.23-5.23-3.68-8.66-5.33-10.46-5.98-6.54-15.27-8.78-24.26-5.84-11.02,3.6-18.47,13.76-19.93,27.17-.44,4.04,2.47,7.66,6.51,8.1Z"/>
    <path class="cls-1" d="M419.27,250.79c8.05-.27,16.94-4.22,24.82-13.24,2.67-3.06,2.35-7.7-.7-10.37-3.06-2.67-7.7-2.35-10.37.7-8.25,9.44-16.64,9.74-20.94,6.02-4.02-3.48-4.87-10.73,2.29-19.1,2.64-3.08,2.28-7.72-.81-10.36-3.08-2.64-7.72-2.28-10.36.8-13.05,15.25-10.25,31.55-.73,39.78,4.43,3.83,10.34,5.99,16.81,5.77Z"/>
    <path class="cls-1" d="M491.66,359.32c1.7-3.47,2.48-6.75,2.83-9.07,2-13.14-3.59-27.44-12.87-35.39,2.98-5.47,4.25-11.45,4.19-16.91-.19-16.7-12.23-35.28-32.04-37.47-4.02-.44-7.66,2.46-8.11,6.5-.45,4.03,2.46,7.67,6.5,8.11,11.72,1.3,18.84,12.73,18.96,23.03.06,5.21-1.76,17.6-19.86,20.03-4.02.54-6.85,4.24-6.31,8.26.51,3.79,3.82,6.51,7.56,6.37.23,0,.47-.03.7-.06,7.74-1.04,13.87-3.53,18.63-6.88,5.18,4.32,9.45,13.58,8.13,22.2-.5,3.28-1.77,6.01-3.78,8.18-.07.07-.15.13-.22.2-3.39,3.51-8.79,5.52-16.19,5.98-4.05.25-7.13,3.74-6.88,7.79.25,3.99,3.64,7.04,7.62,6.89.06,0,.11,0,.17,0,9.55-.59,16.38-3.19,21.33-6.61,2.48,2.72,3.37,7.08,3.28,10.9-.21,9.55-6.23,22.5-22.51,27.6-3.87,1.21-6.03,5.33-4.82,9.21,1.01,3.24,4.06,5.28,7.29,5.15.64-.02,1.28-.13,1.91-.33,2.45-.77,4.73-1.7,6.89-2.74-.02,11.63-4.01,21.11-11.68,27.27-7.97,6.4-19.02,8.06-28.16,4.21-98.48-41.49-274.07-73.27-378.5-54.45-5.36.97-10.74-.65-14.73-4.45-3.98-3.78-5.86-9.03-5.17-14.41.61-4.78,2.21-11.06,6.37-13.77.76-.49,1.63-.87,2.58-1.15.11-.02.23-.02.34-.04.29-.05.55-.15.82-.24,3.2-.63,7.29-.24,12.26,1.23,3.89,1.14,7.98-1.07,9.13-4.97,1.15-3.89-1.07-7.98-4.97-9.13-4.36-1.29-8.42-1.98-12.19-2.1-1.26-17.21,5.28-31.01,13.1-37.59,4.23-3.56,11.13-7.11,19.95-3.83,3.8,1.41,8.03-.53,9.44-4.33,1.41-3.8-.53-8.03-4.33-9.44-6.24-2.31-12.66-2.76-18.81-1.45-1.55-9.7,2.86-21.32,11.1-27.76,5.06-3.96,13.19-7.17,23.16,0,3.29,2.37,7.88,1.62,10.26-1.67,2.37-3.29,1.62-7.88-1.67-10.26-3.47-2.5-7.1-4.31-10.77-5.48-.71-12.87,6.44-21.37,13.14-24.84,7.9-4.1,16.42-2.76,23.4,3.66,2.98,2.75,7.63,2.55,10.38-.43,2.75-2.99,2.56-7.63-.43-10.38-11.45-10.53-26.82-12.79-40.12-5.89-13.38,6.94-21.27,21.01-21.08,36.78-5.34.89-10.54,3.19-15.32,6.92-13.74,10.74-20.07,29.7-15.71,45.56-.69.51-1.37,1.04-2.04,1.6-13.42,11.29-20.2,31.24-18.09,52.06-.52.29-1.05.54-1.54.87-7.11,4.64-11.45,12.79-12.91,24.21-1.29,10.08,2.22,19.89,9.63,26.93,7.42,7.05,17.43,10.06,27.46,8.25,101.86-18.35,273.65,12.86,370.19,53.53,5.59,2.36,11.64,3.38,17.66,3.15,9.09-.35,18.11-3.58,25.41-9.44,13.41-10.77,19.3-28.47,16.44-48.91,7.88-8.43,11.74-18.99,11.95-28.38.21-9.28-2.87-17.22-8.33-22.37Z"/>
  </g>
  <path class="cls-1" d="M7.44,206.04c-10.72-10.36-10.08-27.73,3.41-41.67l9.54-9.86.1.09c13.6-12.73,27.2-13.89,38.58-2.89,13.18,12.75,11.6,29.76-3.96,47.93l3.64,5.35c6.03,9.14,5.97,16.79-.08,23.05-3.67,3.79-7.84,5.45-12.33,4.97-1.5-.16-2.81-.7-3.85-1.71-1.42-1.38-2.02-3.42-1.59-5.94.52-2.62,2.91-4.34,7.1-5.06.84-.11,1.49-.4,2.13-1.06,1.28-1.33.59-4.02-2.1-8.08l-1.63-2.31-.92.95c-2.57,2.66-6.02,2.81-8.77.15-2.66-2.57-2.71-5.93-.14-8.58l2.75-2.85-13.3-20.02c-1.92-3.14-1.51-6.6,1.72-8.61,2.95-2.1,6.5-1.6,8.52,1.63l11.87,17.72c8.69-10.5,9.19-19.38,1.51-26.8-6.73-6.51-14.92-5.07-24.09,4.42l-5.78,5.98c-8.81,9.11-10.07,17.24-3.24,23.85,2.37,2.29,5.28,3.46,8.83,3.58,2.99.14,5.14.75,6.47,2.04,1.04,1.01,1.34,1.84,1.74,3.52.81,3.53-1.1,6.64-4.17,7.35-7.9,1.72-15.22-.58-21.95-7.1Z"/>
  <path class="cls-1" d="M116.38,148.5l2.92,6.66c1.76,4.09,3.73,5.28,5.78,3.83,2.59-1.83,6.03-9.75,3.78-26.89-.39-2.15.82-3.65,2.97-4.03,2.22-.28,3.49.6,3.8,2.64,2.77,18.56,2.2,32.85-6.53,39.01-5.17,3.65-9.78,4-13.78.85-.37,6.56-3.13,11.58-8.3,15.23-8.95,6.32-19.45,3.56-26.83-6.89-9.97-14.12-7.73-33.14,4.23-41.59,4.31-3.04,9.22-4.09,13.13-3.13-.55-2.84.84-5.44,3.96-6.51,3.23-1.15,6.18-.17,7.33,3.06l7.54,17.77ZM90,170.84c4.26,6.03,9.1,7.63,13.09,4.81,5.28-3.73,6.41-13.57,2.33-22.32-.59-1.52-1.4-2.89-2.23-4.08-3.58-5.07-8.26-6.44-12.57-3.4-6.57,4.64-6.93,16.03-.61,24.98Z"/>
  <path class="cls-1" d="M157.85,155.77l-4.28,2.07c-11.88,5.74-21.52,3.37-25.43-4.7-1.78-3.68-2.01-8.41-.37-16.82l2.53-13.24c2.29-12.24,5.57-19.99,11.16-22.69,3.92-1.9,6.57-1.27,8.06,1.82,1.55,3.21.34,5.55-2.39,6.87-1.43.69-2.62,1.85-2.94,3.32-.43,1.53.72,3.31,3.24,5.18,5.08,4.14,12.78,6.13,16.8,14.44.8,1.66,1.13,3.56.99,5.68,4.43-4.49,9.79-12.79,11.67-25.87.33-2.36,1.64-3.58,3.94-3.37,1.95.08,3.52,1.52,3.32,3.53-1.64,21.46-12.77,37.24-26.31,43.79ZM149.22,147.93c4.87-2.35,6.75-6.05,4.97-9.73-2.47-5.11-11.62-9.18-13.57-13.22l-1.85,10.42c-.96,5.59-.7,8.25.28,10.27,2.13,4.39,6.73,3.92,10.18,2.26Z"/>
  <path class="cls-1" d="M193.71,141.31c-7.14,2.37-12.81.79-15.18-6.35-.46-1.38-.83-2.92-.92-4.42l-1.99-18.52-.79-6.13-.63.21c-3.38,1.12-6.55-.46-7.67-3.84-1.12-3.38.42-6.26,3.8-7.38l3.13-1.04-1-9.26c-.33-2.67,1.13-4.96,4.13-5.96,3.88-1.29,7.13.55,7.72,5.22l.66,6.17,8.51-2.83c3.38-1.12,6.55.46,7.68,3.84,1.12,3.38-.42,6.26-3.8,7.38l-11.02,3.67.79,6.13,1.99,17.27c.42,3.34,1.67,5.01,4.8,3.97,5.88-1.96,12.44-10.67,18.91-27.98.88-2.38,2.92-3.34,5.43-2.08,2.79,1.29,2.67,3.84,2.12,5.13-9.73,27.15-19.04,34.28-26.68,36.82Z"/>
  <path class="cls-1" d="M240.25,130.32c-15.58,2.81-28.29-5.22-30.91-19.77-2.78-15.45,7.16-29.44,23.13-32.32,12.59-2.27,22.07,2.73,23.85,12.59,1.85,10.26-4.73,18.41-16.54,20.54-3.25.59-5.94.53-8.24.41-3.41-.32-5.33-2.79-5.01-6.2.37-3.15,2.24-4.69,5.58-4.76,2.15.02,4.01-.05,5.44-.31,4.54-.82,7.16-3.43,6.5-7.07-.65-3.64-4.82-5.16-9.88-4.25-9.09,1.64-14.21,9.67-12.5,19.14,1.57,8.7,8.04,12.63,17.91,10.85,14.02-2.53,25.96-12.18,33.61-26.97.91-1.64,2.53-2.33,4.3-1.44,1.74.76,2.59,2.48,1.83,4.23-6.93,18.81-21.81,32.22-39.08,35.33Z"/>
  <path class="cls-1" d="M280.25,126.04c-6.72.36-11.56-3.6-11.99-11.64-.1-1.84.05-3.97.45-6.37l1.12-6.14,5.15-29.35c5.61-33.07,10.11-40.19,23.81-40.93l1.19-.06c3.56-.19,5.79,1.93,5.98,5.49.19,3.56-1.93,5.92-5.48,6.11l-1.05.06c-4.74.26-7.75,3.33-12.61,30.54l-4.85,27.48-1.09,6.8c-.28,2.13-.47,3.59-.4,4.78.15,2.77,1.1,3.24,2.55,3.17,1.19-.06,2.21-.65,3.08-1.62,1.38-1.26,3.05-2.28,5.09-1.2,1.77.96,2.36,2.12,1.08,5.23-1.89,4.2-6.34,7.35-12,7.65Z"/>
</svg>