<?xml version="1.0" encoding="UTF-8"?>
<svg id="Layer_1" data-name="Layer 1" xmlns="http://www.w3.org/2000/svg" xmlns:xlink="http://www.w3.org/1999/xlink" viewBox="0 0 500 500">
  <defs>
    <style>
      .cls-1 {
        clip-path: url(#clippath-1);
      }

      .cls-2 {
        clip-path: url(#clippath-2);
      }

      .cls-3 {
        clip-path: url(#clippath);
      }

      .cls-4 {
        fill: #f5ffee;
      }
    </style>
    <clipPath id="clippath">
      <path class="cls-4" d="M943.44,265.06c0,76.67-7.49,148.28-66.25,194.86-.07.06-.15.12-.22.17-13.75,10.88-30.46,17.44-47.92,19.04-6.28.57-12.63.87-19.06.87-15.71,0-31-1.75-45.72-5.09,30.5-21.81,50.67-47.54,63.69-80.39-30.7,35.04-47.52,47.41-86.77,55.46,2.57-77.71-63.98-115.36-43.99-214.98,10.88-54.24,38.21-88.64,65.11-122.45,11.56-14.56,23.05-29.02,33.12-44.92,9.08-14.34,17-29.84,22.75-47.63,18.24,9.41,45.85,30.35,64.31,60.22h.02c11.83,19.14,30.84,51.13,21.09,84.48-8.72,29.85-51.85,51.64-42.54,90.09,2-30.21,53.31-55.21,76.32-53.69,3.96,20.51,6.07,41.93,6.07,63.97Z"/>
    </clipPath>
    <clipPath id="clippath-1">
      <path class="cls-4" d="M1016.44,273.55v.14c-.03,40.58-11.75,78.41-31.98,110.3-20.67,32.56-50.19,58.95-85.18,75.77,53.59-52.44,58.36-127.55,58.36-194.69,0-21.79-1.95-43.33-5.85-64.31,12.63-.39,31.15-18.71,33.64-36.05,19.66,31.61,31,68.91,31,108.85Z"/>
    </clipPath>
    <clipPath id="clippath-2">
      <path class="cls-4" d="M723.8,461.19h0c-70.98-32.65-120.24-104.39-120.24-187.64,0-45.08,14.46-86.79,38.98-120.74,2.54,37.78,23.64,60.33,38.09,71.47-11.68,62.52,7.18,104.21,23.84,141.05,9.2,20.36,18.02,39.86,21.27,61.84,1.68,11.34.95,22.92-1.94,34.02Z"/>
    </clipPath>
  </defs>
  <g>
    <path class="cls-4" d="M81.28,269.08c-43.43-3.05-43.71-88.83-.68-92.34,42.56,3.61,42.81,87.14.68,92.34Z"/>
    <path class="cls-4" d="M160.7,196.75l-16.65,45.88h33.3l-16.66-45.88ZM330.1,196.75l-16.65,45.88h33.29l-16.65-45.88ZM330.1,196.75l-16.65,45.88h33.29l-16.65-45.88ZM160.7,196.75l-16.65,45.88h33.3l-16.66-45.88ZM160.7,196.75l-16.65,45.88h33.3l-16.66-45.88ZM330.1,196.75l-16.65,45.88h33.29l-16.65-45.88ZM330.1,196.75l-16.65,45.88h33.29l-16.65-45.88ZM144.06,242.62h33.3l-16.66-45.88-16.65,45.88ZM0,133.14v179.55h500v-179.55H0ZM80.6,270.44c-62.65-1.59-62.65-93.49,0-95.06,62.7,1.55,62.66,93.49,0,95.06ZM379.12,270.44h-32.01v-.68c15.07,1.76.99-19.9.1-25.78h-34.28c-1.88,7.02-13.84,27.01,2.17,25.78v.68h-62.66v-.82c5.09.92,9.98-3.56,6.73-8.46l-28.28-43.99-2.33,2.24c1.72,33.09-5.37,50.54,7.91,50.35v.68h-58.73v-.68c15.07,1.76.97-19.9.1-25.78h-34.28c-1.9,7.02-13.85,27.01,2.17,25.78v.68h-24.85v-.68c17.81-3.63,13.2-6.75,22.17-28.29,9.29-25.53,15.39-42.53,23.45-64.62h1.11c7.3,20.23,26.95,74.26,30.36,83.64,3.41,9.38,21.04,14.06,21.02.51-2.47-55.23,3.08-83.81-11.61-83.41v-.7h29.09v.7c-12.43-.59-6.57,14.79-7.91,39.95l38.43-36.43c2.64-3.24-4.13-3.55-6.97-3.66v-.7l20.44-.04v.74c-11.12-2.33-32.04,24.94-39.75,30.42,13.28,20.22,29.32,44.95,35.05,53.77,5.73,8.82,23,9.92,29.31-.17.9-1.85,2.31-6.16,7.38-20,9.3-25.53,15.35-42.53,23.44-64.62h1.11c7.32,20.22,22.92,63.19,30.36,83.64,1.7,4.73,5.61,9.66,10.83,9.32l.95-.04v.68ZM419.37,270.44c-62.65-1.59-62.65-93.49,0-95.06,62.69,1.55,62.66,93.49,0,95.06ZM419.37,176.74c-43.03,3.51-42.75,89.29.68,92.34,42.13-5.2,41.86-88.73-.68-92.34ZM313.45,242.62h33.29l-16.65-45.88-16.65,45.88ZM144.06,242.62h33.3l-16.66-45.88-16.65,45.88ZM160.7,196.75l-16.65,45.88h33.3l-16.66-45.88ZM330.1,196.75l-16.65,45.88h33.29l-16.65-45.88ZM330.1,196.75l-16.65,45.88h33.29l-16.65-45.88ZM160.7,196.75l-16.65,45.88h33.3l-16.66-45.88Z"/>
    <path class="cls-4" d="M144.06,242.62l16.65-45.88,16.66,45.88h-33.3ZM313.45,242.62l16.65-45.88,16.65,45.88h-33.29Z"/>
    <path class="cls-4" d="M31.33,337.11H.58v-4.25h35.39v1.86c-.02,20.35-11.37,31.62-32.57,32.14l-.72-4.16c18.17-.57,27.82-9.17,28.66-25.6ZM92.76,332.86h36.64v4.57c-1.57,7.77-6.26,13.6-13.49,16.52l-2.8-4.06c6.12-2.54,9.6-6.54,10.89-12.46h-31.24v-4.57ZM106.36,345.43v-5.43h5.09v5.43c0,12.63-4.52,19.03-14.86,21.43l-1.94-4.34c8.77-2.17,11.69-6.43,11.72-17.09ZM190.22,334.35c1.44,4.2,2.79,9.32,4.08,15.25l-4.83,1.04c-1.21-5.44-2.59-10.56-4.14-15.02l4.89-1.27ZM217.38,333.32l5.06.17c-.14,21.89-8.57,31.16-30.5,33.37l-.86-4.83c19.51-2.1,26.12-9.35,26.3-28.71ZM202.82,332.86c1.58,4.86,3.05,10.41,4.14,15.82l-4.89,1.04c-1.09-5.55-2.47-10.99-4.14-15.65l4.89-1.21ZM279.97,343.37c4.88.62,9.14,1.38,14.38,2.68l-.84,3.61c-5.28-1.28-9.54-2.04-14.33-2.64l.79-3.65ZM310.22,338.71l4,.62c-2.44,17.94-12.79,26.51-32.71,27.13l-.62-3.96c18.18-.44,27.17-7.78,29.33-23.79ZM281.86,333.26c5.12.62,9.61,1.38,14.99,2.64l-.88,3.61c-5.39-1.21-9.85-2.02-14.9-2.64l.79-3.61ZM401.08,363.41h-28.28v-4.57h28.28v-8.75h-26.59v-4.46h26.59v-7.73h-28.28v-4.63h33.42v33.19h-5.14v-3.05ZM466.58,332.86c4.93,1.95,9.65,4.38,14.39,7.4l-2.13,3.72c-4.68-2.95-9.4-5.38-14.21-7.36l1.95-3.77ZM496,337.8l4,.86c-3.06,17.16-14.17,26.52-33.37,28.19l-.68-4.13c17.48-1.63,26.99-9.56,30.06-24.93Z"/>
  </g>
  <g>
    <g>
      <path class="cls-4" d="M943.44,265.06c0,76.67-7.49,148.28-66.25,194.86-.07.06-.15.12-.22.17-13.75,10.88-30.46,17.44-47.92,19.04-6.28.57-12.63.87-19.06.87-15.71,0-31-1.75-45.72-5.09,30.5-21.81,50.67-47.54,63.69-80.39-30.7,35.04-47.52,47.41-86.77,55.46,2.57-77.71-63.98-115.36-43.99-214.98,10.88-54.24,38.21-88.64,65.11-122.45,11.56-14.56,23.05-29.02,33.12-44.92,9.08-14.34,17-29.84,22.75-47.63,18.24,9.41,45.85,30.35,64.31,60.22h.02c11.83,19.14,30.84,51.13,21.09,84.48-8.72,29.85-51.85,51.64-42.54,90.09,2-30.21,53.31-55.21,76.32-53.69,3.96,20.51,6.07,41.93,6.07,63.97Z"/>
      <g class="cls-3">
        <rect class="cls-4" x="382.06" y="6.62" width="855.88" height="855.88"/>
      </g>
    </g>
    <g>
      <path class="cls-4" d="M1016.44,273.55v.14c-.03,40.58-11.75,78.41-31.98,110.3-20.67,32.56-50.19,58.95-85.18,75.77,53.59-52.44,58.36-127.55,58.36-194.69,0-21.79-1.95-43.33-5.85-64.31,12.63-.39,31.15-18.71,33.64-36.05,19.66,31.61,31,68.91,31,108.85Z"/>
      <g class="cls-1">
        <rect class="cls-4" x="382.06" y="6.62" width="855.88" height="855.88"/>
      </g>
    </g>
    <g>
      <path class="cls-4" d="M723.8,461.19h0c-70.98-32.65-120.24-104.39-120.24-187.64,0-45.08,14.46-86.79,38.98-120.74,2.54,37.78,23.64,60.33,38.09,71.47-11.68,62.52,7.18,104.21,23.84,141.05,9.2,20.36,18.02,39.86,21.27,61.84,1.68,11.34.95,22.92-1.94,34.02Z"/>
      <g class="cls-2">
        <rect class="cls-4" x="382.06" y="6.62" width="855.88" height="855.88"/>
      </g>
    </g>
  </g>
</svg>