<?xml version="1.0" encoding="UTF-8"?>
<svg id="Layer_1" data-name="Layer 1" xmlns="http://www.w3.org/2000/svg" viewBox="0 0 500 500">
  <defs>
    <style>
      .cls-1 {
        fill: #f5ffee;
      }
    </style>
  </defs>
  <path class="cls-1" d="M341.15,330.98c3.54.07,8.96-4.98,12.36-11.26,3.88-7.18,2.88-11.8-.46-13.62-3.34-1.81-7.77-.11-11.64,7.06-.09.16-.18.33-.26.5-.09-.17-.18-.34-.27-.5-3.89-7.18-8.31-8.87-11.64-7.06-3.35,1.81-4.34,6.44-.46,13.62,3.4,6.29,8.83,11.34,12.37,11.26Z"/>
  <g>
    <path class="cls-1" d="M368.39,432.94c-5.16,3.33-10.47,6.44-15.9,9.34.95-1.16,1.83-2.41,2.54-3.68,2.91-5.2,2.26-8.32,0-9.58-2.25-1.26-5.25-.18-8.16,5.02-2.37,4.24-3.65,10.07-3.07,12.64-3.37,1.61-6.79,3.14-10.24,4.58,1.51-1.46,2.93-3.08,4.09-4.75,4.3-6.19,3.87-10.2,1.19-12.06-2.68-1.87-6.59-.88-10.9,5.31-3.59,5.16-5.94,12.57-5.38,15.75-5.32,1.88-10.72,3.53-16.17,4.98,1.61-1.3,3.15-2.71,4.49-4.19,6.25-6.9,8.44-13.16,5.45-15.87-2.99-2.71-10.03-.84-16.28,6.06-4.82,5.32-8.64,13.15-9.04,17.45-3.7.73-7.42,1.32-11.14,1.84,1.42-1.24,2.76-2.64,3.85-4.12,4.19-5.7,3.63-10.1,1.16-11.91-2.47-1.82-6.16-.99-10.35,4.72-2.83,3.85-4.93,9.1-5.39,12.55-73.4,6.3-148.9-27.18-192.16-87.35C14.28,295.44,25.02,177.56,96.7,103.78c5.41-5.56,24.92-22.02,28.44-24.25,3.52-2.22,6.8-3.98,9.87-5.28,2.92-1.19,6.55-2.46,10.89-3.77,4.34-1.33,8.7-2.17,13.08-2.55,3.84-.35,7.53-.19,11.1.49,3.57.67,7.07,1.54,10.49,2.58,4.5,1.81,7.07,4.85,7.74,9.13.3,1.27.41,2.3.33,3.09-.1.79-.33,2.28-.76,4.49-.35,1.82-.57,3-.67,3.5-.1.52-.38,1.28-.82,2.27-2.92,7.51-6.75,14.84-11.54,22-4.79,7.15-10.27,13.24-16.45,18.23-2.55,2.08-5.31,4.26-8.31,6.59-3,2.31-6.07,4.49-9.19,6.51-3.14,2.03-6.21,3.84-9.19,5.41-3,1.59-5.75,2.68-8.27,3.27.36-1.27,1-3.14,1.85-5.58.87-2.46,1.76-4.98,2.65-7.56.9-2.58,1.81-5.07,2.73-7.45.92-2.38,5.75-13.82,5.75-13.82,2.16-6.45,4.9-12.44,8.24-17.99,3.34-5.53,6.18-9.91,8.53-13.09,1.28-1.78,1.28-3.34,0-4.74-1.28-1.38-3-1.73-5.14-1.06-1.55.38-3.44,1.43-5.64,3.15-2.98,2.25-5.74,4.93-8.27,8-2.54,3.07-4.87,6.4-7.02,9.95-2.16,3.55-4.12,7.21-5.91,10.97-1.79,3.76-3.06,7.16-4.53,10.65,0,0-6.44,15.96-7.67,19.69-1.25,3.72-2.63,7.04-3.36,8.96-1.74-.49-13.9-3.6-15.15.74-1.01,3.53,5.66,8.32,11.46,10.41-1.44,4.83-2.58,8.69-3.39,11.56-.82,2.87-1.44,5.26-1.87,7.2-.44,1.93-.78,3.76-1.03,5.45-.27,1.7-.49,3.8-.7,6.31-.1,1.2-.06,2.62.1,4.26.16,1.63.49,3.22,1.01,4.72.52,1.51,1.2,2.88,2.04,4.12.84,1.22,1.9,2.03,3.17,2.41,1.11.48,2.23.55,3.38.24.7-.14,1.44-.54,2.25-1.19,1.63-.89,2.79-2.55,3.46-4.98.67-2.44,1.3-5.44,1.92-9.02.6-3.58,1.38-7.66,2.31-12.25.95-4.58,2.54-9.56,4.76-14.92,9.67-2.06,19-5.29,28.04-9.7,9.03-4.39,17.25-9.78,24.63-16.18,7.39-6.39,13.73-13.71,18.99-21.98,5.26-8.27,9.03-17.36,11.32-27.28,2.19-9.38,1.55-17.2-1.89-23.43-3.46-6.23-8.77-10.64-15.95-13.2-5.9-1.52-11.65-2.14-17.28-1.87-5.63.27-11.38,1.06-17.28,2.36-4.07.97-8.45,2.39-13.11,4.26-4.64,1.87-8.97,4.11-12.95,6.7-2.58,1.54-5.17,3.33-7.78,5.37-2.6,2.06-9.7,7.35-10.51,8.04C18.42,157.18,4.31,291.36,73.22,382.43c45.72,62.71,121.88,93.9,195.85,87.68,1.02,3.18,4.9,8.34,9.15,11.56,5.64,4.28,9.41,4.02,11.27,1.58,1.85-2.44,1-7.4-4.64-11.68-1.43-1.08-3.05-1.99-4.7-2.7,3.74-.51,7.47-1.08,11.18-1.78,2.41,3.5,9.89,8.39,16.91,10.51,8.92,2.68,16.12.9,17.28-2.96,1.16-3.86-4.15-8.35-13.07-11.03-.97-.29-1.99-.54-3.02-.76,4.69-1.31,9.34-2.77,13.95-4.41,1.35,2.66,8.72,6.52,15.28,7.64,7.43,1.27,10.87-.83,11.42-4.05.55-3.22-2-6.34-9.43-7.61-1.88-.32-3.89-.45-5.86-.42,3.41-1.44,6.8-2.98,10.15-4.61,1.63,1.94,7.4,4.2,12.4,4.55,5.95.42,8.49-1.5,8.67-4.07.18-2.58-2.07-4.83-8.01-5.26-1.27-.09-2.61-.06-3.94.06,5.34-2.94,10.6-6.11,15.73-9.55.59-.38.76-1.19.38-1.78-.4-.6-1.19-.76-1.79-.38Z"/>
    <path class="cls-1" d="M193.92,174.55c0-.53.13-1.25.4-2.18.26-1.32.59-2.48.99-3.47.4-.99.92-2.28,1.58-3.86,1.45-3.43,3.56-6.93,6.34-10.49s5.54-6.27,8.32-8.12c1.71-1.32,3.59-2.51,5.64-3.56,2.04-1.06,3.93-1.85,5.64-2.38,1.98-.66,3.93-1.19,5.84-1.58,1.91-.4,3.13-.46,3.66-.2.66.27,1.15.03,1.49-.69.33-.72.36-1.62.1-2.67-.53-1.45-1.88-2.8-4.06-4.06-2.18-1.25-4.59-2.01-7.23-2.28-2.77-.13-6.34.56-10.69,2.08-4.36,1.52-8.19,3.4-11.48,5.64-8.45,6.21-14.78,13.6-19.01,22.18-2.38,5.15-3.96,9.57-4.75,13.27-.13.79-.23,1.48-.3,2.08-.07.59-.1,1.62-.1,3.07s.03,2.48.1,3.07c.07.59.23,1.29.49,2.08.92,4.36,3.1,7.72,6.53,10.1,1.05.66,2.01,1.12,2.87,1.39.86.26,1.88.4,3.07.4,1.85.13,3.46.03,4.85-.3,1.39-.33,3-.82,4.85-1.49,1.06-.53,1.95-1.02,2.67-1.48.72-.46,1.55-1.02,2.48-1.68,2.51-1.98,4.88-4.26,7.13-6.83,2.24-2.57,4.55-5.57,6.93-9.01,1.19-1.85,1.85-2.77,1.98-2.77v.4c0,.13.03.23.1.3.07.07.1.23.1.5.13,1.32.46,3.07.99,5.25.53,2.18,1.12,3.99,1.78,5.45.79,1.72,1.81,3.43,3.07,5.15,1.25,1.72,2.48,3.04,3.66,3.96.66.53,1.49,1.06,2.48,1.58.99.53,1.81.92,2.48,1.19.4.13,1.52.2,3.37.2,1.32,0,2.31-.1,2.97-.3.66-.2,1.65-.63,2.97-1.29,3.04-1.85,4.55-3.5,4.55-4.95-.27-.4-.53-.59-.79-.59-.4,0-1.06.2-1.98.59-1.85,1.06-3.2,1.55-4.06,1.49-.86-.07-1.68-.63-2.48-1.68-.4-.66-.79-1.39-1.19-2.18-.4-.79-.73-1.91-.99-3.37-.53-2.24-.89-4.82-1.09-7.72-.2-2.9-.3-6.86-.3-11.88,0-3.69-.03-6.3-.1-7.82-.07-1.52-.3-3.2-.69-5.05-.92-3.83-2.64-5.74-5.15-5.74-1.19,0-2.48.53-3.86,1.58-1.39,1.06-2.61,2.44-3.66,4.16-.66,1.06-1.26,2.47-1.78,4.26-.53,1.78-.86,3.46-.99,5.05-.13.66-.27,1.12-.4,1.39-.13.27-.53.93-1.19,1.98-1.45,2.25-2.57,3.93-3.37,5.05-.79,1.12-2.05,2.81-3.76,5.05-1.06,1.19-2.35,2.57-3.86,4.16-1.52,1.58-2.74,2.71-3.66,3.37-2.11,1.72-4.29,2.57-6.53,2.57-1.06,0-1.91-.59-2.57-1.78-.27-.66-.4-1.12-.4-1.39v-5.15Z"/>
    <path class="cls-1" d="M290.34,150.99c-1.32,1.85-2.01,2.94-2.08,3.27-.07.33.23.49.89.49,1.05,0,2.51-.76,4.36-2.28,1.85-1.52,3.63-3.53,5.35-6.04.66-.92,1.25-1.98,1.78-3.17.53-1.19.92-2.24,1.19-3.17.53-1.58.53-3.23,0-4.95-.4-1.85-1.42-3.79-3.07-5.84-1.65-2.04-3.27-3.4-4.85-4.06-1.58-.66-3.73-.89-6.43-.69-2.71.2-5.32.76-7.82,1.68-2.25.79-4.69,1.98-7.33,3.56-2.64,1.58-4.95,3.3-6.93,5.15-3.56,3.17-6.77,7.16-9.6,11.98-2.84,4.82-4.79,9.54-5.84,14.16-.4,2.11-.66,3.7-.79,4.75-.13,1.06-.2,2.51-.2,4.36v3.37c0,.79.13,1.72.4,2.77.26,1.58.59,3.04.99,4.36.4,1.32.86,2.64,1.39,3.96,2.77,5.94,6.8,9.5,12.08,10.69,1.85.4,3.99.46,6.43.2,2.44-.27,4.78-.92,7.03-1.98,1.19-.53,2.54-1.19,4.06-1.98,1.52-.79,2.74-1.52,3.66-2.18,2.11-1.58,4.42-3.59,6.93-6.04,2.5-2.44,4.78-4.95,6.83-7.52,2.04-2.57,3.76-4.98,5.15-7.23,1.39-2.24,2.08-3.96,2.08-5.15,0-.92-.4-1.25-1.19-.99-.4,0-1.12.66-2.18,1.98-1.06,1.06-2.25,2.25-3.57,3.56-1.32,1.32-2.67,2.64-4.06,3.96-1.39,1.32-2.61,2.51-3.66,3.56-1.06,1.06-1.78,1.78-2.18,2.18-1.32,1.06-2.97,2.21-4.95,3.46-1.98,1.26-3.83,2.21-5.54,2.87-4.36,2.11-7.79,2.51-10.3,1.19-1.06-.79-1.98-1.78-2.77-2.97-1.19-2.64-1.39-6.6-.59-11.88.4-1.98.79-3.66,1.19-5.05.4-1.39,1.12-3.07,2.18-5.05,1.32-2.9,2.51-5.21,3.56-6.93,1.06-1.71,2.44-3.63,4.16-5.74,3.83-5.02,7.99-8.18,12.47-9.5,1.06-.26,2.24-.43,3.56-.5,1.32-.07,2.18.03,2.57.3.66.4.99,1.06.99,1.98,0,1.58-.4,3.17-1.19,4.75-.79,1.58-2.18,3.7-4.16,6.34Z"/>
    <path class="cls-1" d="M331.13,89.01c.92-6.6,2.11-13.73,3.56-21.38.13-1.32-.07-2.51-.59-3.56-.4-.4-.93-.66-1.59-.79-.66-.13-1.32-.2-1.98-.2-1.06.4-2.01,1.29-2.87,2.67-.86,1.39-2.02,3.6-3.47,6.63-3.04,6.34-5.64,14.26-7.82,23.76-2.18,9.5-3.73,19.7-4.65,30.59-.92,10.89-1.12,22.05-.59,33.46.52,11.42,1.98,22.27,4.36,32.57.26,1.32.86,2.18,1.78,2.57.92.4,1.95.5,3.07.3,1.12-.2,2.18-.59,3.17-1.19.99-.59,1.75-1.22,2.28-1.88,1.59-2.11,2.61-4.62,3.07-7.52.46-2.9.69-5.74.69-8.51s.07-5.21.2-7.33c.13-2.11.72-3.5,1.78-4.16.4,4.36,1.32,8.88,2.77,13.56,1.45,4.69,3.4,8.91,5.84,12.67,2.44,3.76,5.45,6.7,9.01,8.81,3.56,2.11,7.72,2.77,12.47,1.98,3.83-.79,7.03-2.35,9.6-4.65,2.57-2.31,4.65-4.95,6.24-7.92,1.59-2.97,2.74-6.01,3.47-9.11.72-3.1,1.22-5.77,1.48-8.02.13-.92.03-1.65-.3-2.18-.33-.53-.76-.82-1.29-.89-.53-.07-1.02.1-1.48.5-.46.4-.76,1.12-.89,2.18-.27,1.85-.79,3.8-1.58,5.84-.79,2.05-1.75,4.03-2.87,5.94-1.12,1.91-2.41,3.53-3.86,4.85-1.46,1.32-3.04,2.18-4.75,2.57-3.96.66-7.23-.16-9.8-2.48-2.57-2.31-4.72-5.28-6.44-8.91-1.72-3.63-3-7.42-3.86-11.38-.86-3.96-1.48-7.19-1.88-9.7,3.56-.13,6.99-.82,10.3-2.08,3.3-1.25,6.24-3.04,8.81-5.35,2.57-2.31,4.72-5.05,6.43-8.22,1.71-3.17,2.84-6.73,3.37-10.69.26-1.19.23-2.67-.1-4.45-.33-1.78-.76-3.2-1.29-4.26-.53-1.19-1.09-2.21-1.68-3.07-.59-.86-1.42-1.61-2.48-2.28-3.83-2.38-7.76-3-11.78-1.88-4.03,1.12-7.79,3.3-11.29,6.53-3.5,3.24-6.57,7.1-9.21,11.58-2.64,4.49-4.55,8.84-5.74,13.07-.27-7.13-.4-13.89-.4-20.3s.23-12.74.69-19.01c.46-6.27,1.15-12.7,2.08-19.31ZM344.99,144.06c2.24-3.43,4.68-6.73,7.33-9.9,2.64-3.17,5.11-5.64,7.43-7.43,2.31-1.78,3.79-1.81,4.45-.1.92.66,1.32,2.15,1.19,4.46-.13,2.31-1.06,4.82-2.77,7.52-1.72,2.71-4.29,5.32-7.72,7.82-3.43,2.51-8.05,4.23-13.86,5.15.4-1.58,1.71-4.09,3.96-7.52Z"/>
    <path class="cls-1" d="M161.63,340.58c-1.19,10.3-1.62,20.49-1.29,30.59.33,10.1,1.42,19.9,3.27,29.4,1.05,4.36,2.24,8.05,3.56,11.09,1.32,3.04,3.03,5.87,5.15,8.51,2.11,2.9,4.59,5.28,7.43,7.13,2.84,1.85,5.64,2.9,8.42,3.17h1.39c.53,0,1.19-.07,1.98-.2,1.19-.27,2.01-.46,2.48-.59.46-.13,1.42-.53,2.87-1.19,2.11-1.06,3.89-2.05,5.35-2.97,1.45-.92,2.84-2.11,4.16-3.56,1.85-1.59,2.64-3.24,2.38-4.95-.27-1.46-2.18-1.32-5.74.4-1.85,1.05-3.63,1.88-5.35,2.48-1.72.59-2.91.82-3.56.69-.4-.13-1.02-.46-1.88-.99-.86-.53-1.55-1.12-2.08-1.78-3.83-4.88-6.43-10.46-7.82-16.73-1.39-6.27-2.28-12.31-2.67-18.12-.27-1.85-.4-4.16-.4-6.93v-6.93c0-4.09.03-7.59.1-10.49.07-2.9.13-5.45.2-7.62.07-2.18.2-4.19.4-6.04.2-1.85.43-3.76.69-5.74.4-3.43,1.19-8.25,2.38-14.45,1.19-6.2,2.77-12.34,4.75-18.41,1.45,0,3.73-.2,6.83-.59,3.1-.4,6.66-.86,10.69-1.39,4.03-.53,8.18-1.15,12.47-1.88,4.29-.72,8.32-1.55,12.08-2.48,3.76-.92,7.03-1.88,9.8-2.87,2.77-.99,4.62-2.01,5.54-3.07.66-.92.92-1.85.79-2.77-.13-.92-.66-1.32-1.58-1.19-3.43.66-7.59,1.29-12.47,1.88-4.89.59-9.9,1.09-15.05,1.48-5.15.4-10.1.66-14.85.79-4.75.13-8.71.2-11.88.2.4-1.98.86-3.96,1.39-5.94.4-1.58.76-3.23,1.09-4.95.33-1.71.63-3.1.89-4.16,1.32-4.62,2.34-8.35,3.07-11.19.72-2.84,1.09-4.78,1.09-5.84.13-2.77-.86-4.16-2.97-4.16-.92,0-1.98.33-3.17.99-1.19.66-2.31,1.52-3.37,2.57-.92.79-1.88,1.85-2.87,3.17-.99,1.32-1.82,2.44-2.47,3.37-.93,1.45-1.92,3.56-2.97,6.34-1.06,2.77-2.11,5.54-3.17,8.32-1.06,2.77-2.01,5.28-2.87,7.52-.86,2.25-1.49,3.63-1.88,4.16-1.32.79-3.6,1.29-6.83,1.48-3.24.2-6.6.4-10.1.59-3.5.2-6.7.5-9.6.89-2.9.39-4.75,1.19-5.54,2.37-.4.66-.53,1.59-.4,2.77.79,2.51,2.97,4.49,6.53,5.94,1.85.66,3.69,1.09,5.54,1.29,1.85.2,3.66.23,5.44.1,1.78-.13,3.56-.3,5.35-.5,1.78-.2,3.53-.3,5.25-.3-.92,5.28-1.95,10.49-3.07,15.64-1.12,5.15-2.08,10.36-2.87,15.64Z"/>
    <path class="cls-1" d="M242.21,339.99c-.93.26-1.95.83-3.07,1.68-1.12.86-1.95,1.68-2.48,2.48-.66.53-1.52,1.45-2.57,2.77-1.06,1.32-1.78,2.25-2.18,2.77-.4.66-.89,1.62-1.48,2.87-.59,1.26-1.26,2.61-1.98,4.06-.73,1.46-1.42,2.94-2.08,4.46-.66,1.52-1.26,2.94-1.78,4.26,0,.4-.13,1.09-.4,2.08-.27.99-.56,2.08-.89,3.27-.33,1.19-.66,2.38-.99,3.56-.33,1.19-.63,2.11-.89,2.77,0,.4-.07.76-.2,1.09-.13.33-.2.43-.2.3v-1.39c0-.79.03-1.71.1-2.77.07-1.06.13-2.11.2-3.17.07-1.05.1-1.98.1-2.77l.59-7.72c0-1.32.03-2.84.1-4.55.07-1.72.23-3.3.49-4.75.13-3.43.23-6.3.3-8.61.07-2.31-.03-4.12-.3-5.44-.53-2.11-1.65-3.56-3.37-4.36-1.45-.53-3.3-.43-5.54.3-2.25.73-3.9,2.15-4.95,4.26-.79,1.45-1.55,3.2-2.28,5.25-.73,2.05-1.36,3.93-1.88,5.64-.27.79-.53,1.95-.79,3.47-.27,1.52-.46,2.8-.59,3.86l-.99,13.07c0,1.59.03,3.4.1,5.45.07,2.05.16,4.13.3,6.24.13,2.11.26,4.16.4,6.14.13,1.98.33,3.56.59,4.75.53,2.25,1.05,4.59,1.58,7.03.53,2.44,1.05,4.19,1.58,5.25.66,1.58,2.01,2.87,4.06,3.86,2.04.99,3.86,1.55,5.45,1.68,1.05.26,2.14.13,3.27-.4,1.12-.53,1.81-1.32,2.08-2.38.26-1.05.59-1.78.99-2.18.13-.26.2-.59.2-.99s.13-.72.4-.99c.13-.4.4-1.12.79-2.18.4-1.06.79-2.28,1.19-3.66.4-1.39.76-2.77,1.09-4.16.33-1.39.63-2.54.89-3.46,1.19-4.22,2.11-7.49,2.77-9.8.66-2.31,1.19-4.12,1.58-5.45.4-1.32.72-2.41.99-3.27.26-.86.59-1.95.99-3.27.53-1.32,1.05-2.7,1.58-4.16.53-1.45.99-2.57,1.39-3.37.79-1.85,1.55-3.63,2.28-5.34.72-1.72,1.22-2.57,1.49-2.57.13,0,.3.17.5.49.2.33.43.63.69.89.92,2.51,2.21,4.49,3.86,5.94,1.65,1.45,3.6,2.44,5.84,2.97,1.05.27,2.31.23,3.76-.1,1.45-.33,2.64-.69,3.56-1.09.52-.26,1.05-.63,1.58-1.09.53-.46,1.19-.96,1.98-1.48,1.85-2.51,2.7-4.42,2.57-5.74,0-.92-.46-1.39-1.39-1.39-.27,0-.56.03-.89.1-.33.07-.83.3-1.48.69-1.32.92-2.21,1.48-2.67,1.68-.46.2-.83.1-1.09-.3-.4-.4-.79-.99-1.19-1.78-.27-1.32-.66-2.44-1.19-3.37-.53-.92-1.12-1.85-1.78-2.77-.93-1.71-2.01-3-3.27-3.86-1.26-.86-2.61-1.42-4.06-1.68-1.19-.26-2.31-.13-3.37.4Z"/>
    <path class="cls-1" d="M299.14,382.65c.07.07.1.23.1.5.13,1.32.46,3.07.99,5.25.53,2.18,1.12,3.99,1.78,5.45.79,1.72,1.81,3.43,3.07,5.15,1.25,1.72,2.48,3.04,3.66,3.96.66.53,1.49,1.06,2.48,1.58.99.53,1.81.92,2.48,1.19.4.13,1.52.2,3.37.2,1.32,0,2.31-.1,2.97-.3.66-.2,1.65-.63,2.97-1.29,3.04-1.85,4.55-3.5,4.55-4.95-.27-.4-.53-.59-.79-.59-.4,0-1.06.2-1.98.59-1.85,1.06-3.2,1.55-4.06,1.49-.86-.07-1.68-.63-2.48-1.68-.39-.66-.79-1.39-1.19-2.18-.4-.79-.73-1.91-.99-3.37-.53-2.24-.89-4.82-1.09-7.72-.2-2.9-.3-6.86-.3-11.88,0-3.69-.03-6.3-.1-7.82-.07-1.52-.3-3.2-.69-5.05-.92-3.83-2.64-5.74-5.15-5.74-1.19,0-2.48.53-3.86,1.58-1.39,1.06-2.61,2.44-3.66,4.16-.66,1.06-1.26,2.47-1.78,4.26-.53,1.78-.86,3.46-.99,5.05-.13.66-.27,1.12-.4,1.39-.13.27-.53.93-1.19,1.98-1.45,2.25-2.57,3.93-3.37,5.05-.79,1.12-2.05,2.81-3.76,5.05-1.06,1.19-2.35,2.57-3.86,4.16-1.52,1.58-2.74,2.71-3.66,3.37-2.11,1.72-4.29,2.57-6.54,2.57-1.06,0-1.91-.59-2.57-1.78-.27-.66-.4-1.12-.4-1.39v-5.15c0-.53.13-1.25.4-2.18.26-1.32.59-2.48.99-3.47.4-.99.92-2.28,1.58-3.86,1.45-3.43,3.56-6.93,6.34-10.49,2.77-3.56,5.54-6.27,8.32-8.12,1.71-1.32,3.6-2.51,5.64-3.56,2.04-1.06,3.93-1.85,5.64-2.38,1.98-.66,3.93-1.19,5.84-1.59,1.91-.4,3.13-.46,3.66-.2.66.27,1.15.03,1.49-.69.33-.72.36-1.62.1-2.67-.53-1.45-1.88-2.8-4.06-4.06-2.18-1.25-4.59-2.01-7.23-2.28-2.77-.13-6.34.56-10.69,2.08-4.36,1.52-8.19,3.4-11.48,5.64-8.45,6.21-14.79,13.6-19.01,22.18-2.38,5.15-3.96,9.57-4.75,13.27-.13.79-.23,1.48-.3,2.08-.07.59-.1,1.62-.1,3.07s.03,2.48.1,3.07c.07.59.23,1.29.5,2.08.92,4.36,3.1,7.72,6.53,10.1,1.06.66,2.01,1.12,2.87,1.39.86.26,1.88.4,3.07.4,1.85.13,3.46.03,4.85-.3,1.39-.33,3-.82,4.85-1.49,1.06-.52,1.95-1.02,2.67-1.48.72-.46,1.55-1.02,2.48-1.68,2.51-1.98,4.88-4.26,7.13-6.83,2.24-2.57,4.55-5.58,6.93-9.01,1.19-1.85,1.85-2.77,1.98-2.77v.4c0,.13.03.23.1.3Z"/>
    <path class="cls-1" d="M333.69,398.59c.66,1.19,1.32,2.25,1.98,3.17.79.93,1.85,1.78,3.17,2.57,1.32.79,2.57,1.32,3.76,1.58,1.06.26,2.24.23,3.56-.1,1.32-.33,2.64-.89,3.96-1.68.79-.53,1.81-1.32,3.07-2.38,1.25-1.05,2.34-1.98,3.27-2.77.92-1.05,1.91-2.34,2.97-3.86,1.06-1.52,1.52-3,1.39-4.45,0-.79-.4-1.19-1.19-1.19-1.45.13-2.57.69-3.37,1.68-.79.99-2.11,1.82-3.96,2.48-2.25.92-3.89.92-4.95,0-.53-.26-.96-.63-1.29-1.09-.33-.46-.63-1.22-.89-2.28-.79-2.24-1.22-4.88-1.29-7.92-.07-3.04.07-6.14.4-9.31.33-3.17.76-6.3,1.29-9.41.53-3.1.92-5.84,1.19-8.22.26-1.98.46-3.5.59-4.55.13-1.06.23-1.91.3-2.57.07-.66.1-1.19.1-1.58v-1.59c-.13-4.09-.86-6.66-2.18-7.72-1.85-1.59-3.96-1.45-6.34.39-2.25,1.32-3.99,3.14-5.25,5.45-1.26,2.31-2.41,5.58-3.46,9.8-1.46,6.73-2.31,13.86-2.57,21.38-.27,7.52,1.05,14.45,3.96,20.79.53,1.06,1.12,2.18,1.78,3.37Z"/>
    <path class="cls-1" d="M308.83,40.6c.06-3.51-1.41-9.25-3.83-13.6-3.49-6.27-7.1-7.57-9.82-6.06-2.72,1.51-3.95,6.46-.46,12.73.83,1.49,1.88,2.89,3.03,4.16-3.56-.79-7.14-1.5-10.76-2.11-.07-3.63-6.51-11.79-13.42-16.38-7.76-5.15-15.17-5.53-17.4-2.17-2.23,3.36,1.56,9.19,9.32,14.34,1.03.68,2.13,1.32,3.26,1.91-4.75-.39-9.54-.62-14.36-.69.34-2.69-5.79-9.32-12.03-12.69-6.63-3.59-10.56-2.7-12.12.17s-.14,6.65,6.49,10.23c1.81.98,3.84,1.79,5.86,2.42-4.39.17-8.8.48-13.23.93-.25-2.18-5.73-6.5-10.93-8.34-5.62-1.99-8.58-.83-9.45,1.61-.86,2.43.7,5.21,6.32,7.21,1.04.37,2.15.67,3.27.9-7.12,1.08-14.26,2.49-21.42,4.31-.64.16-1.03.81-.88,1.45.16.65.81,1.04,1.46.88,7.55-1.85,15.2-3.26,22.91-4.28-1.45.97-2.87,2.09-4.06,3.3-4.19,4.24-4.4,7.42-2.56,9.23,1.84,1.82,5.01,1.58,9.21-2.65,3.22-3.25,5.88-8.12,6.27-10.87,4.25-.38,8.52-.62,12.78-.75-1.84.88-3.65,1.94-5.24,3.11-6.06,4.48-6.94,8.41-5,11.04s5.96,2.95,12.02-1.53c4.81-3.55,9.21-9.38,10.05-12.69,5.2.12,10.39.44,15.56.93-1.62.7-3.21,1.49-4.66,2.36-7.98,4.8-11.88,10.16-9.8,13.62,2.08,3.46,9.35,3.7,17.33-1.09,5.51-3.31,10.85-8.79,13.07-12.77,3.85.65,7.68,1.42,11.49,2.27-1.87.57-3.73,1.34-5.39,2.3-6.22,3.59-7.49,7.89-5.93,10.59s5.32,3.43,11.54-.15c4.48-2.58,8.83-6.98,10.46-10.04,6.85,1.91,13.6,4.16,20.22,6.76,83.74,32.14,140.27,117.16,136.83,206.82-1.22,43.75-17.29,86.36-43.18,121.45-3.05,3.79-5.67,6.75-9.25,9.68-6.02,4.83-17.04,13.23-20.11,11.81-2.09-.97-2.83-2.97-3.02-5.15v-3.07c0-2.11.03-4.49.1-7.13.03-1.39.07-2.81.1-4.25,2.76-3.6,5.17-6.99,6.97-9.91,15.24-25.18,30.94-61.95,30.6-91.74-.16-15.22-11.39-24.25-24.64-14.34-3.55,2.68-11.1,12.85-13.73,17.69,0,0,.01,0,.01,0-4.43,7.4-7.64,15.02-9.61,22.85-2.31,9.18-3.8,18.58-4.45,28.22-.53,7.92-.66,15.61-.4,23.07.25,6.96.85,13.94,1.79,20.96-6.12,10.21-12.48,19.95-18.29,28.29-1.03,1.48-.78,3.49.56,4.69,1.4,1.25,3.51,1.19,4.86-.11,4.62-4.46,10.2-10.4,15.6-16.6.72,7.22,2.89,20.33,12.38,18.15,14.98-4.71,26.38-16.29,35.14-28.67,0,0,.01-.01.02-.02,26.94-36.14,43.08-80.57,44.05-125.73,2.56-104.93-68.67-191.08-161.52-216.85ZM392.07,339.46c.4-3.37.79-6.5,1.19-9.41.4-3.17.72-5.64.99-7.43.26-1.78.53-3.4.79-4.85.26-1.45.56-2.97.89-4.55.33-1.58.82-3.83,1.48-6.73.79-3.56,1.52-6.5,2.18-8.81.66-2.31,1.32-4.39,1.98-6.24.66-1.85,5.71-14.32,8.62-14.32,1.62,0,.72,7.69.32,11.59-1.73,12.7-5.38,25.81-9.66,38.52-2.47,7.15-10.18,25.53-10.16,25.41.39-3.47.98-9.82,1.38-13.18Z"/>
    <path class="cls-1" d="M264.62,282.31c.38-6.39,2.19-11.51,5.44-15.36,3.25-3.85,7.09-6.7,11.53-8.57-4.05-.53-7.46-2.13-10.21-4.77-2.75-2.64-4.09-6.49-4.01-11.55.04-4.91,1.26-9.13,3.64-12.66,2.38-3.53,5.33-6.11,8.84-7.75-.06-1.94-.2-4.15-.43-6.61-.03-.37-.07-.72-.09-1.04-.19-2.11,1.33-3.99,3.43-4.25.03,0,.05,0,.08,0,2.55-.32,5.06-.33,7.55-.03,2.49.29,3.69,1.12,3.6,2.47-.03.15-.18.68-.45,1.58-.27.91-.56,2.12-.89,3.63-.33,1.52-.61,3.04-.86,4.57,6.96,4.65,9.67,12.2,8.13,22.66l-.07.12c-.96.38-2.47.63-4.54.76-2.07.13-3.99,0-5.77-.41s-2.64-1.06-2.59-1.98c-.02-.06.47-1.64,1.46-4.72.99-3.08,1.78-6.02,2.38-8.83.6-2.81.6-4.28,0-4.41-3.13-.77-5.8.18-8.01,2.82-2.21,2.65-3.34,6.18-3.36,10.59.04,12.03,2.4,17.46,7.08,16.3.73-.18,1.77-.4,3.14-.67,1.37-.27,2.45-.5,3.24-.7.02.07.16.36.43.89.27.53.19,1.18-.25,1.95-.44.77-1.32,1.32-2.64,1.65-1.19.29-2.13.46-2.82.49-2.87.85-5.33,3.09-7.37,6.71-2.04,3.62-3.15,8.32-3.33,14.1-.26,6.85.59,12.35,2.56,16.48,1.97,4.13,4.67,5.77,8.1,4.93,3.89-.96,6.63-3.83,8.21-8.59,1.58-4.77,1.88-10.87.87-18.32-.07-.54.67-1.16,2.22-1.86,1.54-.7,3.09-1.29,4.65-1.78.02,0,.03,0,.05-.01,1.2-.38,2.43.51,2.45,1.76.12,5.71-1.25,11.68-4.09,17.91-3.25,7.1-7.41,12.12-12.49,15.06.23,8.27.31,12.42.24,12.43-3.1,1.33-5.64,1.24-7.62-.27-1.98-1.5-3.26-4.84-3.84-10.02-4.17-1-7.52-3.65-10.05-7.96-2.53-4.31-3.7-9.88-3.51-16.72Z"/>
  </g>
</svg>