<?xml version="1.0" encoding="UTF-8"?>
<svg id="Layer_1" data-name="Layer 1" xmlns="http://www.w3.org/2000/svg" xmlns:xlink="http://www.w3.org/1999/xlink" viewBox="0 0 500 500">
  <defs>
    <style>
      .cls-1 {
        clip-path: url(#clippath-1);
      }

      .cls-2 {
        clip-path: url(#clippath-2);
      }

      .cls-3 {
        clip-path: url(#clippath);
      }

      .cls-4 {
        fill: #f5ffee;
      }
    </style>
    <clipPath id="clippath">
      <path class="cls-4" d="M-176.56,265.06c0,76.67-7.49,148.28-66.25,194.86-.07.06-.15.12-.22.17-13.75,10.88-30.46,17.44-47.92,19.04-6.28.57-12.63.87-19.06.87-15.71,0-31-1.75-45.72-5.09,30.5-21.81,50.67-47.54,63.69-80.39-30.7,35.04-47.52,47.41-86.77,55.46,2.57-77.71-63.98-115.36-43.99-214.98,10.88-54.24,38.21-88.64,65.11-122.45,11.56-14.56,23.05-29.02,33.12-44.92,9.08-14.34,17-29.84,22.75-47.63,18.24,9.41,45.85,30.35,64.31,60.22h.02c11.83,19.14,30.84,51.13,21.09,84.48-8.72,29.85-51.85,51.64-42.54,90.09,2-30.21,53.31-55.21,76.32-53.69,3.96,20.51,6.07,41.93,6.07,63.97Z"/>
    </clipPath>
    <clipPath id="clippath-1">
      <path class="cls-4" d="M-103.56,273.55v.14c-.03,40.58-11.75,78.41-31.98,110.3-20.67,32.56-50.19,58.95-85.18,75.77,53.59-52.44,58.36-127.55,58.36-194.69,0-21.79-1.95-43.33-5.85-64.31,12.63-.39,31.15-18.71,33.64-36.05,19.66,31.61,31,68.91,31,108.85Z"/>
    </clipPath>
    <clipPath id="clippath-2">
      <path class="cls-4" d="M-396.2,461.19h0c-70.98-32.65-120.24-104.39-120.24-187.64,0-45.08,14.46-86.79,38.98-120.74,2.54,37.78,23.64,60.33,38.09,71.47-11.68,62.52,7.18,104.21,23.84,141.05,9.2,20.36,18.02,39.86,21.27,61.84,1.68,11.34.95,22.92-1.94,34.02Z"/>
    </clipPath>
  </defs>
  <g>
    <g>
      <path class="cls-4" d="M-176.56,265.06c0,76.67-7.49,148.28-66.25,194.86-.07.06-.15.12-.22.17-13.75,10.88-30.46,17.44-47.92,19.04-6.28.57-12.63.87-19.06.87-15.71,0-31-1.75-45.72-5.09,30.5-21.81,50.67-47.54,63.69-80.39-30.7,35.04-47.52,47.41-86.77,55.46,2.57-77.71-63.98-115.36-43.99-214.98,10.88-54.24,38.21-88.64,65.11-122.45,11.56-14.56,23.05-29.02,33.12-44.92,9.08-14.34,17-29.84,22.75-47.63,18.24,9.41,45.85,30.35,64.31,60.22h.02c11.83,19.14,30.84,51.13,21.09,84.48-8.72,29.85-51.85,51.64-42.54,90.09,2-30.21,53.31-55.21,76.32-53.69,3.96,20.51,6.07,41.93,6.07,63.97Z"/>
      <g class="cls-3">
        <rect class="cls-4" x="-737.94" y="6.62" width="855.88" height="855.88"/>
      </g>
    </g>
    <g>
      <path class="cls-4" d="M-103.56,273.55v.14c-.03,40.58-11.75,78.41-31.98,110.3-20.67,32.56-50.19,58.95-85.18,75.77,53.59-52.44,58.36-127.55,58.36-194.69,0-21.79-1.95-43.33-5.85-64.31,12.63-.39,31.15-18.71,33.64-36.05,19.66,31.61,31,68.91,31,108.85Z"/>
      <g class="cls-1">
        <rect class="cls-4" x="-737.94" y="6.62" width="855.88" height="855.88"/>
      </g>
    </g>
    <g>
      <path class="cls-4" d="M-396.2,461.19h0c-70.98-32.65-120.24-104.39-120.24-187.64,0-45.08,14.46-86.79,38.98-120.74,2.54,37.78,23.64,60.33,38.09,71.47-11.68,62.52,7.18,104.21,23.84,141.05,9.2,20.36,18.02,39.86,21.27,61.84,1.68,11.34.95,22.92-1.94,34.02Z"/>
      <g class="cls-2">
        <rect class="cls-4" x="-737.94" y="6.62" width="855.88" height="855.88"/>
      </g>
    </g>
  </g>
  <g>
    <path class="cls-4" d="M350.95,285.44l-81.08-46.8,38.6-22.29c23.08-13.33,37.3-37.96,37.3-64.62v-.02c0-26.66-14.22-51.29-37.32-64.62-8.22-4.74-16.93-6.91-25.42-6.91-26.66,0-51.1,21.32-51.1,51.1v222.86c0,27.09,14.45,52.12,37.92,65.66v-137.38l119,68.7v-.02c0-27.09-14.45-52.12-37.9-65.66ZM269.86,131.29c0-10.06,10.89-16.35,19.6-11.34,11.36,6.56,18.36,18.67,18.36,31.79-.02,6.54-1.76,12.85-4.93,18.32-3.15,5.48-7.74,10.14-13.41,13.41l-19.62,11.34v-63.52Z"/>
    <path class="cls-4" d="M157.92,173.98c-34.01-19.64-76.52,4.91-76.52,44.19,0,26.66,14.22,51.29,37.32,64.62,11.55,6.66,24.42,10,37.3,10s25.77-3.35,37.32-10l29.1-16.79v-54.75l-64.52-37.26ZM174.35,249.92c-11.34,6.56-25.31,6.56-36.66.02-11.34-6.56-18.34-18.67-18.32-31.77v-.02c0-10.06,10.89-16.35,19.6-11.32l55,31.77-19.62,11.32Z"/>
    <path class="cls-4" d="M412.65,87.37c-43.45-43.45-101.21-67.37-162.65-67.37s-120.65,24.53-164.28,69.01C44.41,131.15,20.79,187.93,20.01,246.92c-.83,63.61,23.97,123.49,69.53,167.88,42.08,41,98.65,64.43,157.39,65.18,63.59.83,123.47-23.97,167.88-69.53,41.17-42.25,64.6-99.12,65.18-158.11.62-62.32-23.35-121-67.35-164.97ZM252.9,452.89c-113.39,1.59-205.82-89.87-205.82-202.89S137.94,47.09,249.99,47.09s204.48,92.4,202.91,205.8c-1.53,109.29-90.72,198.5-200.01,200.01Z"/>
  </g>
</svg>