<?xml version="1.0" encoding="UTF-8"?>
<svg id="Layer_1" data-name="Layer 1" xmlns="http://www.w3.org/2000/svg" viewBox="0 0 500 500">
  <defs>
    <style>
      .cls-1 {
        fill: #f5ffee;
      }
    </style>
  </defs>
  <path class="cls-1" d="M237.61,335.24c-37.75,1.3-75.62,9.18-112.62,23.42l-15.72,6.07c-42.85-18.24-72.93-60.73-72.93-110.24,0-52.31,33.51-96.77,80.25-113.06,2.66,54.02,37.89,101.51,89.31,119.47l4.66,1.64c1.64,27.22,11.42,52.28,27.05,72.71Z"/>
  <path class="cls-1" d="M369.19,123.3c-8.18-1.58-16.63-2.41-25.28-2.41-71.43,0-129.95,56.35-133.44,126.92-46.71-16.33-80.22-60.79-80.22-113.06,0-66.14,53.61-119.75,119.74-119.75,62.28,0,113.45,47.54,119.19,108.3Z"/>
  <path class="cls-1" d="M463.66,254.49c0,49.39-29.91,91.8-72.62,110.1l-16.19-5.99c-39.97-14.8-80.13-22.7-119.47-23.48-19.4-21.29-31.21-49.59-31.21-80.63,0-66.14,53.61-119.75,119.74-119.75s119.74,53.61,119.74,119.75Z"/>
  <path class="cls-1" d="M370.02,371.6l-74.42,91.69c-23.51,28.94-67.69,28.94-91.2,0l-74.42-91.69c.14-.06.3-.11.44-.17,39.17-15.05,78.86-22.65,119.14-22.54,7.23.03,14.5.28,21.79.8,32.35,2.27,65.08,9.48,98.24,21.73.14.06.3.11.44.17Z"/>
</svg>