<?xml version="1.0" encoding="UTF-8"?>
<svg id="Layer_1" data-name="Layer 1" xmlns="http://www.w3.org/2000/svg" xmlns:xlink="http://www.w3.org/1999/xlink" viewBox="0 0 500 500">
  <defs>
    <style>
      .cls-1 {
        clip-path: url(#clippath-1);
      }

      .cls-2 {
        clip-path: url(#clippath-2);
      }

      .cls-3 {
        clip-path: url(#clippath);
      }

      .cls-4 {
        fill: #f5ffee;
      }
    </style>
    <clipPath id="clippath">
      <path class="cls-4" d="M383.44,265.06c0,76.67-7.49,148.28-66.25,194.86-.07.06-.15.12-.22.17-13.75,10.88-30.46,17.44-47.92,19.04-6.28.57-12.63.87-19.06.87-15.71,0-31-1.75-45.72-5.09,30.5-21.81,50.67-47.54,63.69-80.39-30.7,35.04-47.52,47.41-86.77,55.46,2.57-77.71-63.98-115.36-43.99-214.98,10.88-54.24,38.21-88.64,65.11-122.45,11.56-14.56,23.05-29.02,33.12-44.92,9.08-14.34,17-29.84,22.75-47.63,18.24,9.41,45.85,30.35,64.31,60.22h.02c11.83,19.14,30.84,51.13,21.09,84.48-8.72,29.85-51.85,51.64-42.54,90.09,2-30.21,53.31-55.21,76.32-53.69,3.96,20.51,6.07,41.93,6.07,63.97Z"/>
    </clipPath>
    <clipPath id="clippath-1">
      <path class="cls-4" d="M456.44,273.55v.14c-.03,40.58-11.75,78.41-31.98,110.3-20.67,32.56-50.19,58.95-85.18,75.77,53.59-52.44,58.36-127.55,58.36-194.69,0-21.79-1.95-43.33-5.85-64.31,12.63-.39,31.15-18.71,33.64-36.05,19.66,31.61,31,68.91,31,108.85Z"/>
    </clipPath>
    <clipPath id="clippath-2">
      <path class="cls-4" d="M163.8,461.19h0c-70.98-32.65-120.24-104.39-120.24-187.64,0-45.08,14.46-86.79,38.98-120.74,2.54,37.78,23.64,60.33,38.09,71.47-11.68,62.52,7.18,104.21,23.84,141.05,9.2,20.36,18.02,39.86,21.27,61.84,1.68,11.34.95,22.92-1.94,34.02Z"/>
    </clipPath>
  </defs>
  <g>
    <path class="cls-4" d="M383.44,265.06c0,76.67-7.49,148.28-66.25,194.86-.07.06-.15.12-.22.17-13.75,10.88-30.46,17.44-47.92,19.04-6.28.57-12.63.87-19.06.87-15.71,0-31-1.75-45.72-5.09,30.5-21.81,50.67-47.54,63.69-80.39-30.7,35.04-47.52,47.41-86.77,55.46,2.57-77.71-63.98-115.36-43.99-214.98,10.88-54.24,38.21-88.64,65.11-122.45,11.56-14.56,23.05-29.02,33.12-44.92,9.08-14.34,17-29.84,22.75-47.63,18.24,9.41,45.85,30.35,64.31,60.22h.02c11.83,19.14,30.84,51.13,21.09,84.48-8.72,29.85-51.85,51.64-42.54,90.09,2-30.21,53.31-55.21,76.32-53.69,3.96,20.51,6.07,41.93,6.07,63.97Z"/>
    <g class="cls-3">
      <path class="cls-4" d="M383.44,265.06c0,76.67-7.49,148.28-66.25,194.86-.07.06-.15.12-.22.17-13.75,10.88-30.46,17.44-47.92,19.04-6.28.57-12.63.87-19.06.87-15.71,0-31-1.75-45.72-5.09,30.5-21.81,50.67-47.54,63.69-80.39-30.7,35.04-47.52,47.41-86.77,55.46,2.57-77.71-63.98-115.36-43.99-214.98,10.88-54.24,38.21-88.64,65.11-122.45,11.56-14.56,23.05-29.02,33.12-44.92,9.08-14.34,17-29.84,22.75-47.63,18.24,9.41,45.85,30.35,64.31,60.22h.02c11.83,19.14,30.84,51.13,21.09,84.48-8.72,29.85-51.85,51.64-42.54,90.09,2-30.21,53.31-55.21,76.32-53.69,3.96,20.51,6.07,41.93,6.07,63.97Z"/>
      <rect class="cls-4" x="-177.94" y="6.62" width="855.88" height="855.88"/>
    </g>
  </g>
  <g>
    <path class="cls-4" d="M456.44,273.55v.14c-.03,40.58-11.75,78.41-31.98,110.3-20.67,32.56-50.19,58.95-85.18,75.77,53.59-52.44,58.36-127.55,58.36-194.69,0-21.79-1.95-43.33-5.85-64.31,12.63-.39,31.15-18.71,33.64-36.05,19.66,31.61,31,68.91,31,108.85Z"/>
    <g class="cls-1">
      <path class="cls-4" d="M456.44,273.55v.14c-.03,40.58-11.75,78.41-31.98,110.3-20.67,32.56-50.19,58.95-85.18,75.77,53.59-52.44,58.36-127.55,58.36-194.69,0-21.79-1.95-43.33-5.85-64.31,12.63-.39,31.15-18.71,33.64-36.05,19.66,31.61,31,68.91,31,108.85Z"/>
      <rect class="cls-4" x="-177.94" y="6.62" width="855.88" height="855.88"/>
    </g>
  </g>
  <g>
    <path class="cls-4" d="M163.8,461.19h0c-70.98-32.65-120.24-104.39-120.24-187.64,0-45.08,14.46-86.79,38.98-120.74,2.54,37.78,23.64,60.33,38.09,71.47-11.68,62.52,7.18,104.21,23.84,141.05,9.2,20.36,18.02,39.86,21.27,61.84,1.68,11.34.95,22.92-1.94,34.02Z"/>
    <g class="cls-2">
      <path class="cls-4" d="M163.8,461.19h0c-70.98-32.65-120.24-104.39-120.24-187.64,0-45.08,14.46-86.79,38.98-120.74,2.54,37.78,23.64,60.33,38.09,71.47-11.68,62.52,7.18,104.21,23.84,141.05,9.2,20.36,18.02,39.86,21.27,61.84,1.68,11.34.95,22.92-1.94,34.02Z"/>
      <rect class="cls-4" x="-177.94" y="6.62" width="855.88" height="855.88"/>
    </g>
  </g>
</svg>