<?xml version="1.0" encoding="UTF-8"?>
<svg id="Layer_1" data-name="Layer 1" xmlns="http://www.w3.org/2000/svg" xmlns:xlink="http://www.w3.org/1999/xlink" viewBox="0 0 500 500">
  <defs>
    <style>
      .cls-1 {
        clip-path: url(#clippath-1);
      }

      .cls-2 {
        fill: none;
        stroke: #f5ffee;
        stroke-miterlimit: 10;
        stroke-width: 20.43px;
      }

      .cls-3 {
        clip-path: url(#clippath-2);
      }

      .cls-4 {
        clip-path: url(#clippath);
      }

      .cls-5 {
        fill: #f5ffee;
      }
    </style>
    <clipPath id="clippath">
      <path class="cls-5" d="M943.44-326.18c0,76.67-7.49,148.28-66.25,194.86-.07.06-.15.12-.22.17-13.75,10.88-30.46,17.44-47.92,19.04-6.28.57-12.63.87-19.06.87-15.71,0-31-1.75-45.72-5.09,30.5-21.81,50.67-47.54,63.69-80.39-30.7,35.04-47.52,47.41-86.77,55.46,2.57-77.71-63.98-115.36-43.99-214.98,10.88-54.24,38.21-88.64,65.11-122.45,11.56-14.56,23.05-29.02,33.12-44.92,9.08-14.34,17-29.84,22.75-47.63,18.24,9.41,45.85,30.35,64.31,60.22h.02c11.83,19.14,30.84,51.13,21.09,84.48-8.72,29.85-51.85,51.64-42.54,90.09,2-30.21,53.31-55.21,76.32-53.69,3.96,20.51,6.07,41.93,6.07,63.97Z"/>
    </clipPath>
    <clipPath id="clippath-1">
      <path class="cls-5" d="M1016.44-317.69v.14c-.03,40.58-11.75,78.41-31.98,110.3-20.67,32.56-50.19,58.95-85.18,75.77,53.59-52.44,58.36-127.55,58.36-194.69,0-21.79-1.95-43.33-5.85-64.31,12.63-.39,31.15-18.71,33.64-36.05,19.66,31.61,31,68.91,31,108.85Z"/>
    </clipPath>
    <clipPath id="clippath-2">
      <path class="cls-5" d="M723.8-130.05h0c-70.98-32.65-120.24-104.39-120.24-187.64,0-45.08,14.46-86.79,38.98-120.74,2.54,37.78,23.64,60.33,38.09,71.47-11.68,62.52,7.18,104.21,23.84,141.05,9.2,20.36,18.02,39.86,21.27,61.84,1.68,11.34.95,22.92-1.94,34.02Z"/>
    </clipPath>
  </defs>
  <g>
    <g>
      <path class="cls-5" d="M943.44-326.18c0,76.67-7.49,148.28-66.25,194.86-.07.06-.15.12-.22.17-13.75,10.88-30.46,17.44-47.92,19.04-6.28.57-12.63.87-19.06.87-15.71,0-31-1.75-45.72-5.09,30.5-21.81,50.67-47.54,63.69-80.39-30.7,35.04-47.52,47.41-86.77,55.46,2.57-77.71-63.98-115.36-43.99-214.98,10.88-54.24,38.21-88.64,65.11-122.45,11.56-14.56,23.05-29.02,33.12-44.92,9.08-14.34,17-29.84,22.75-47.63,18.24,9.41,45.85,30.35,64.31,60.22h.02c11.83,19.14,30.84,51.13,21.09,84.48-8.72,29.85-51.85,51.64-42.54,90.09,2-30.21,53.31-55.21,76.32-53.69,3.96,20.51,6.07,41.93,6.07,63.97Z"/>
      <g class="cls-4">
        <rect class="cls-5" x="382.06" y="-584.61" width="855.88" height="855.88"/>
      </g>
    </g>
    <g>
      <path class="cls-5" d="M1016.44-317.69v.14c-.03,40.58-11.75,78.41-31.98,110.3-20.67,32.56-50.19,58.95-85.18,75.77,53.59-52.44,58.36-127.55,58.36-194.69,0-21.79-1.95-43.33-5.85-64.31,12.63-.39,31.15-18.71,33.64-36.05,19.66,31.61,31,68.91,31,108.85Z"/>
      <g class="cls-1">
        <rect class="cls-5" x="382.06" y="-584.61" width="855.88" height="855.88"/>
      </g>
    </g>
    <g>
      <path class="cls-5" d="M723.8-130.05h0c-70.98-32.65-120.24-104.39-120.24-187.64,0-45.08,14.46-86.79,38.98-120.74,2.54,37.78,23.64,60.33,38.09,71.47-11.68,62.52,7.18,104.21,23.84,141.05,9.2,20.36,18.02,39.86,21.27,61.84,1.68,11.34.95,22.92-1.94,34.02Z"/>
      <g class="cls-3">
        <rect class="cls-5" x="382.06" y="-584.61" width="855.88" height="855.88"/>
      </g>
    </g>
  </g>
  <g>
    <rect class="cls-2" x="43.16" y="43.16" width="413.68" height="413.68" rx="82.74" ry="82.74"/>
    <polygon class="cls-5" points="150.38 94.87 94.87 94.87 94.87 150.38 116.76 150.38 116.76 116.76 150.38 116.76 150.38 94.87"/>
    <polygon class="cls-5" points="383.24 349.62 383.24 383.24 349.62 383.24 349.62 405.13 405.13 405.13 405.13 349.62 383.24 349.62"/>
    <path class="cls-5" d="M340.79,270.58l-19.61-19.61c.01-.32.01-.66.01-.98,0-39.26-31.95-71.19-71.2-71.19s-71.19,31.93-71.19,71.19c0,13.81,4.07,27.12,11.35,38.44,6.01,9.38,14.24,17.4,24.18,23.17,9.12,5.31,19.45,8.54,29.98,9.35.63.06,1.26.1,1.9.13h.13c1.14.07,2.34.1,3.65.1.32,0,.66,0,.98-.01l19.61,19.6c-7.54,1.72-15.29,2.48-23.16,2.28-5.12-.15-10.16-.7-15.06-1.66-4.04-.77-8-1.82-11.84-3.12-34.88-11.73-60.87-43.71-63.41-81.99-3.71-56.29,42.92-102.9,99.21-99.15,47.62,3.17,85.45,42.61,86.73,90.31.2,7.85-.55,15.62-2.26,23.15Z"/>
    <polygon class="cls-5" points="316.14 276.77 292.37 300.54 268.6 276.77 253.12 292.25 292.37 331.5 316.14 307.73 339.91 331.5 355.39 316.02 316.14 276.77"/>
  </g>
</svg>