<?xml version="1.0" encoding="UTF-8"?>
<svg id="Layer_1" data-name="Layer 1" xmlns="http://www.w3.org/2000/svg" viewBox="0 0 500 500">
  <defs>
    <style>
      .cls-1 {
        fill: #f5ffee;
      }
    </style>
  </defs>
  <polygon class="cls-1" points="500 166.84 433.56 333.16 382.09 333.16 366.78 294.82 355.66 322.57 351.43 333.16 299.96 333.16 284.63 294.8 280.4 284.2 233.52 166.84 284.97 166.84 306.13 219.8 306.13 219.82 310.37 230.41 310.37 230.42 347.18 322.57 347.2 322.55 347.2 322.54 351.43 311.96 351.43 311.95 362.53 284.2 325.7 192.02 321.46 181.43 321.46 181.42 315.64 166.84 367.08 166.84 388.24 219.8 392.49 230.41 392.49 230.42 429.3 322.57 491.53 166.84 500 166.84"/>
  <polygon class="cls-1" points="187.22 333.16 135.75 333.16 72.39 174.56 3.09 174.56 0 166.84 142.94 166.84 146.03 174.56 123.84 174.56 187.22 333.16"/>
  <g>
    <polygon class="cls-1" points="284.63 294.8 269.32 333.16 217.87 333.16 167.94 208.18 154.5 174.56 151.41 166.84 202.84 166.84 265.07 322.57 280.4 284.2 284.63 294.8"/>
    <polygon class="cls-1" points="325.7 192.02 314.6 219.79 310.37 209.2 321.46 181.43 325.7 192.02"/>
  </g>
</svg>