<?xml version="1.0" encoding="UTF-8"?>
<svg id="Layer_1" data-name="Layer 1" xmlns="http://www.w3.org/2000/svg" viewBox="0 0 500 500">
  <defs>
    <style>
      .cls-1 {
        fill: #f5ffee;
      }
    </style>
  </defs>
  <path class="cls-1" d="M302.34,440.02c-23.4,0-43.86-9-59.18-26.02-14.86-16.52-23.84-39.35-28.86-65.43-30.26,60.69-66.67,91.44-108.32,91.44-27.74,0-50.08-11.32-64.6-32.72-25.11-37.02-25.15-102.88-.13-201.36,17.33-68.21,40.41-126.48,41.38-128.92,5.52-13.87,21.23-20.63,35.1-15.12,13.87,5.51,20.64,21.23,15.13,35.1-36.31,91.35-74.82,238.6-46.74,279.96,3.18,4.68,7.78,9.01,19.87,9.01,20.54,0,61.45-24.96,104.62-192.09,1.54-5.95,2.77-10.72,3.71-14,5.77-20.2,18.32-24.44,27.84-24.44,7.66,0,15.05,3.29,20.17,8.99,8.56,9.51,7.69,17.8,5.58,37.8-9.93,94.11-4.73,153.19,15.45,175.61,5.13,5.7,10.81,8.13,19,8.13,14.05,0,30.37-11.77,44.46-31.81-4.76-2.95-9.27-6.16-13.5-9.63-24.37-19.98-38.35-48.51-38.35-78.29,0-43.89,29.25-78.27,66.6-78.27,41.56,0,68.42,31.69,68.42,80.73,0,17.2-3.09,35.83-8.76,54.3,9.06,1.22,18.84,1.84,29.25,1.84,14.93,0,27.03,12.1,27.03,27.03s-12.1,27.03-27.03,27.03c-18.88,0-36.25-1.65-52.07-4.94-.68,1.12-1.37,2.23-2.07,3.33-25.61,40.45-58.99,62.73-93.99,62.73ZM361.55,242.03c-5.68,0-12.55,10.8-12.55,24.22,0,7.94,2.41,23.25,18.56,36.49.84.69,1.72,1.37,2.61,2.04,3.68-12.6,5.73-25.07,5.73-36.06,0-26.67-9.7-26.67-14.37-26.67Z"/>
</svg>